<?xml version="1.0" encoding="UTF-8" standalone="no"?>
<svg
   xmlns:dc="http://purl.org/dc/elements/1.1/"
   xmlns:cc="http://creativecommons.org/ns#"
   xmlns:rdf="http://www.w3.org/1999/02/22-rdf-syntax-ns#"
   xmlns:svg="http://www.w3.org/2000/svg"
   xmlns="http://www.w3.org/2000/svg"
   viewBox="0 0 666.66669 666.66669"
   height="666.66669"
   width="666.66669"
   xml:space="preserve"
   id="svg2"
   version="1.1"><metadata
     id="metadata8"><rdf:RDF><cc:Work
         rdf:about=""><dc:format>image/svg+xml</dc:format><dc:type
           rdf:resource="http://purl.org/dc/dcmitype/StillImage" /></cc:Work></rdf:RDF></metadata><defs
     id="defs6"><clipPath
       id="clipPath20"
       clipPathUnits="userSpaceOnUse"><path
         id="path18"
         d="M 0,500 H 500 V 0 H 0 Z" /></clipPath><clipPath
       id="clipPath32"
       clipPathUnits="userSpaceOnUse"><path
         id="path30"
         d="M 0,500 H 500 V 0 H 0 Z" /></clipPath></defs><g
     transform="matrix(1.3333333,0,0,-1.3333333,0,666.66667)"
     id="g10"><path
       id="path12"
       style="fill:#ffffff;fill-opacity:1;fill-rule:nonzero;stroke:none"
       d="M 0,0 H 500 V 500 H 0 Z" /><g
       id="g14"><g
         clip-path="url(#clipPath20)"
         id="g16"><g
           transform="translate(393.528,411.7228)"
           id="g22"><path
             id="path24"
             style="fill:#ffe7dc;fill-opacity:1;fill-rule:nonzero;stroke:none"
             d="m 0,0 c -18.201,2.577 -36.989,1.793 -54.596,7.076 -18.553,5.566 -34.493,17.476 -52.218,25.289 -27.37,12.063 -59.105,13.909 -87.689,5.102 -28.585,-8.808 -53.777,-28.195 -69.611,-53.571 -20.593,-33 -25.125,-74.186 -46.387,-106.759 -11.871,-18.186 -28.605,-33.087 -38.558,-52.389 -18.083,-35.072 -10.179,-78.978 9.928,-112.929 11.164,-18.849 26.213,-35.894 45.463,-46.351 39.928,-21.689 88.815,-11.651 134.013,-16.327 36.077,-3.732 71.239,-17.196 107.464,-15.378 29.642,1.489 58.637,13.636 80.49,33.719 21.853,20.083 36.399,47.952 40.38,77.363 5.446,40.243 -8.314,81.16 -3.503,121.485 1.89,15.851 6.637,31.376 6.929,47.337 C 72.881,-44.243 41.6,-5.889 0,0" /></g></g></g><g
       id="g26"><g
         clip-path="url(#clipPath32)"
         id="g28"><g
           transform="translate(471.0797,267.7336)"
           id="g34"><path
             id="path36"
             style="fill:#ad6b4a;fill-opacity:1;fill-rule:nonzero;stroke:none"
             d="m 0,0 c -6.304,3.868 -13.795,5.208 -20.662,7.954 -11.127,4.45 -21.129,13.621 -23.177,25.428 L -46.185,25 c -3.756,-4.603 -2.86,-11.793 0.779,-16.49 3.637,-4.697 9.374,-7.295 15.107,-8.852 5.734,-1.557 11.69,-2.258 17.337,-4.103 2.005,-0.655 4.219,-1.733 4.712,-3.783 0.539,-2.24 -1.378,-4.413 -3.519,-5.266 -2.14,-0.854 -4.52,-0.84 -6.756,-1.392 -1.173,-0.29 -2.567,-1.298 -2.053,-2.391 0.301,-0.642 1.102,-0.839 1.803,-0.949 7.494,-1.172 15.915,-0.639 21.542,4.447 1.417,1.282 2.644,2.902 2.947,4.789 C 6.312,-5.266 3.216,-1.972 0,0" /></g><g
           transform="translate(367.2301,304.1432)"
           id="g38"><path
             id="path40"
             style="fill:#a0603f;fill-opacity:1;fill-rule:nonzero;stroke:none"
             d="m 0,0 c -5.98,-11.94 -4.242,-27.333 4.25,-37.64 -6.096,-1.334 -12.799,-3.067 -16.256,-8.262 -0.763,-1.147 -1.237,-2.891 -0.156,-3.745 0.473,-0.374 1.11,-0.443 1.711,-0.493 11.15,-0.928 22.449,-0.048 33.321,2.595 1.028,0.25 2.105,0.543 2.859,1.286 0.953,0.937 1.182,2.372 1.859,3.525 1.43,2.436 4.504,3.203 7.052,4.423 10.995,5.268 12.512,17.391 9.735,27.929 -1.788,6.781 -4.049,13.438 -6.761,19.906 -1.072,2.559 -2.303,5.201 -4.521,6.867 -5.66,4.251 -13.89,1.141 -19.269,-1.971 C 7.981,11.041 3.033,6.056 0,0" /></g><g
           transform="translate(356.8678,254.3307)"
           id="g42"><path
             id="path44"
             style="fill:none;stroke:#47112c;stroke-width:0.5;stroke-linecap:round;stroke-linejoin:round;stroke-miterlimit:10;stroke-dasharray:none;stroke-opacity:1"
             d="M 0,0 C 0.013,1.191 0.602,2.363 1.55,3.084" /></g><g
           transform="translate(360.5045,253.9557)"
           id="g46"><path
             id="path48"
             style="fill:none;stroke:#47112c;stroke-width:0.5;stroke-linecap:round;stroke-linejoin:round;stroke-miterlimit:10;stroke-dasharray:none;stroke-opacity:1"
             d="M 0,0 C 0.172,1.225 0.973,2.344 2.077,2.901" /></g><g
           transform="translate(372.7565,266.007)"
           id="g50"><path
             id="path52"
             style="fill:none;stroke:#47112c;stroke-width:0.5;stroke-linecap:round;stroke-linejoin:round;stroke-miterlimit:10;stroke-dasharray:none;stroke-opacity:1"
             d="M 0,0 C 2.921,-1.031 6.032,-1.521 9.128,-1.437" /></g><g
           transform="translate(340.3717,326.55)"
           id="g54"><path
             id="path56"
             style="fill:#a0603f;fill-opacity:1;fill-rule:nonzero;stroke:none"
             d="m 0,0 c 0.49,-18.963 2.696,-37.936 1.349,-56.858 -0.268,-3.765 -0.981,-9.713 -3.05,-12.972 -0.725,-1.141 -1.9,-1.908 -2.815,-2.901 -0.915,-0.994 -1.581,-2.467 -0.984,-3.679 0.712,-1.444 2.678,-1.621 4.282,-1.493 1.704,0.137 3.399,0.39 5.068,0.76 1.287,0.285 2.608,0.664 3.591,1.541 0.89,0.794 1.411,1.912 1.874,3.01 4.065,9.642 5.33,20.239 7.51,30.411 2.397,11.179 4.982,22.318 7.754,33.409 C 25.881,-3.56 27.235,1.74 26.946,7.104 26.46,16.135 19.397,25.435 9.341,22.791 0.463,20.457 -0.187,7.221 0,0" /></g><g
           transform="translate(339.7858,248.8698)"
           id="g58"><path
             id="path60"
             style="fill:none;stroke:#47112c;stroke-width:0.5;stroke-linecap:round;stroke-linejoin:round;stroke-miterlimit:10;stroke-dasharray:none;stroke-opacity:1"
             d="M 0,0 C -0.478,1.522 -0.031,3.296 1.11,4.412" /></g><g
           transform="translate(335.7701,249.5412)"
           id="g62"><path
             id="path64"
             style="fill:none;stroke:#47112c;stroke-width:0.5;stroke-linecap:round;stroke-linejoin:round;stroke-miterlimit:10;stroke-dasharray:none;stroke-opacity:1"
             d="M 0,0 C -0.375,1.189 0.095,2.595 1.11,3.32" /></g><g
           transform="translate(339.7194,256.5129)"
           id="g66"><path
             id="path68"
             style="fill:none;stroke:#47112c;stroke-width:0.5;stroke-linecap:round;stroke-linejoin:round;stroke-miterlimit:10;stroke-dasharray:none;stroke-opacity:1"
             d="M 0,0 C 1.128,-0.178 2.265,-0.301 3.404,-0.368" /></g><g
           transform="translate(340.4752,342.3903)"
           id="g70"><path
             id="path72"
             style="fill:#ad6b4a;fill-opacity:1;fill-rule:nonzero;stroke:none"
             d="m 0,0 c 0.332,-12.229 4.844,-24.938 14.567,-32.362 9.132,-6.972 21.291,-8.331 31.636,-13.329 1.415,-0.684 2.824,-1.458 3.894,-2.61 1.544,-1.665 2.22,-3.941 2.718,-6.156 1.301,-5.783 1.717,-11.765 1.228,-17.672 -0.325,-3.925 -0.782,-8.564 2.215,-11.118 1.081,-0.921 2.466,-1.399 3.839,-1.76 8.603,-2.262 18.18,-0.474 25.388,4.738 2.083,1.507 4.012,3.332 5.153,5.636 1.046,2.111 1.372,4.5 1.569,6.847 1.274,15.199 -2.313,30.515 -8.359,44.517 -6.045,14.002 -14.488,26.832 -23.303,39.278 -2.247,3.174 -4.51,6.346 -6.565,9.627 -1.86,2.97 -4.48,5.578 -6.57,8.425 -4.346,5.921 -8.078,12.416 -9.935,19.571 C 37.146,54.899 36.82,57.13 35.273,57.25 33.94,57.354 31.509,55.851 30.255,55.36 27.91,54.443 25.293,53.643 23.118,52.351 17.539,49.039 12.713,44.609 8.893,39.37 1.525,29.265 -0.331,12.151 0,0" /></g><g
           transform="translate(374.2369,312.7287)"
           id="g74"><path
             id="path76"
             style="fill:#e0ae89;fill-opacity:1;fill-rule:nonzero;stroke:none"
             d="m 0,0 c -7.88,9.073 -11.816,21.457 -10.621,33.414 0.572,5.727 2.253,11.279 3.306,16.938 0.805,4.331 1.243,8.777 0.656,13.143 -0.587,4.366 -2.258,8.671 -5.251,11.903 -1.14,1.231 -2.131,2.471 -3.073,3.691 -3.765,-2.843 -7.096,-6.232 -9.886,-10.058 -7.367,-10.104 -9.224,-27.218 -8.893,-39.369 0.332,-12.229 4.844,-24.938 14.568,-32.363 9.131,-6.972 21.291,-8.331 31.635,-13.329 0.76,-0.367 1.514,-0.766 2.219,-1.23 -1.127,2.472 -2.747,4.764 -4.534,6.821 C 6.944,-6.78 3.18,-3.661 0,0" /></g><g
           transform="translate(355.6549,360.2204)"
           id="g78"><path
             id="path80"
             style="fill:#235879;fill-opacity:1;fill-rule:nonzero;stroke:none"
             d="m 0,0 c 5.936,1.112 11.491,3.818 16.444,7.274 4.1,2.861 8.26,6.439 10.579,10.957 1.783,3.472 1.824,8.095 -1.255,10.932 -0.25,0.231 -0.56,0.454 -0.897,0.409 C 24.568,29.531 24.34,29.285 24.141,29.053 19.04,23.132 14.99,16.524 8.248,12.241 3.167,9.013 -2.966,7.25 -8.939,8.003 -10.28,8.172 -11.156,8.088 -12.397,7.708 -12.604,7.646 -12.753,7.471 -12.888,7.302 -13.755,6.21 -14.485,4.918 -14.487,3.524 -14.496,-2.186 -3.339,-0.626 0,0" /></g><g
           transform="translate(344.2477,429.6525)"
           id="g82"><path
             id="path84"
             style="fill:#935535;fill-opacity:1;fill-rule:nonzero;stroke:none"
             d="M 0,0 C -1.368,1.685 -3.242,3.553 -5.35,3.031 -6.44,2.761 -7.263,1.896 -8.095,1.14 c -2.355,-2.138 -5.275,-3.648 -8.381,-4.337 -0.872,-0.193 -1.792,-0.337 -2.516,-0.86 -0.694,-0.499 -1.117,-1.28 -1.518,-2.034 -2.312,-4.357 -4.626,-8.714 -6.939,-13.07 -0.559,-1.053 -1.071,-2.484 -0.214,-3.313 0.39,-0.377 0.958,-0.493 1.497,-0.549 5.648,-0.592 10.597,3.374 15.659,5.945 0.791,0.402 1.664,0.783 2.536,0.622 1.088,-0.201 1.863,-1.18 2.893,-1.58 1.189,-0.462 2.58,-0.071 3.595,0.702 1.014,0.773 1.719,1.877 2.35,2.986 1.412,2.481 2.738,5.41 2.612,8.335 C 3.37,-3.465 1.556,-1.914 0,0" /></g><g
           transform="translate(346.9674,427.2785)"
           id="g86"><path
             id="path88"
             style="fill:#ad6b4a;fill-opacity:1;fill-rule:nonzero;stroke:none"
             d="m 0,0 c -2.606,0.121 -5.246,-0.043 -7.606,-1.295 -0.96,-0.509 -1.738,-1.297 -2.498,-2.072 -2.982,-3.036 -6.064,-6.191 -7.935,-10.066 -1.982,-4.106 -1.281,-8.381 -0.947,-12.794 0.235,-3.109 0.405,-6.394 -0.995,-9.18 -1.34,-2.664 -3.723,-4.643 -4.415,-7.658 -0.762,-3.327 0.01,-7.419 0.741,-10.712 0.42,-1.89 1.15,-3.964 2.901,-4.791 1.867,-0.881 4.078,0.03 6.127,-0.224 2.511,-0.31 4.473,-2.306 6.863,-3.13 4.25,-1.466 8.777,0.98 12.52,3.469 4.619,3.072 8.815,6.885 13.462,9.865 4.157,2.666 8.994,3.92 12.859,7.319 6.997,6.155 8.741,15.842 7.586,24.832 -0.615,4.795 -2.81,9.583 -6.781,12.34 C 27.5,-1.056 21.798,-0.927 16.464,-0.909 11.943,-0.893 7.431,-0.606 2.928,-0.215 1.968,-0.132 0.986,-0.046 0,0" /></g><g
           transform="translate(359.8815,387.1496)"
           id="g90"><path
             id="path92"
             style="fill:#f0c198;fill-opacity:1;fill-rule:nonzero;stroke:none"
             d="m 0,0 c -4.094,1.404 -8.969,0.551 -12.505,3.047 -2.931,2.067 -4.076,5.988 -3.758,9.559 0.367,4.116 2.272,8.149 2.935,12.307 0.126,0.791 0.235,1.622 -0.03,2.378 -0.266,0.756 -1.03,1.399 -1.818,1.251 -0.73,-0.139 -1.184,-0.857 -1.52,-1.521 -1.95,-3.847 -2.945,-8.094 -3.974,-12.283 -0.492,-2.005 -1.016,-4.052 -2.17,-5.763 -1.796,-2.662 -6.51,-4.995 -9.982,-4.094 -0.025,-0.052 -0.047,-0.106 -0.074,-0.159 -1.339,-2.664 -3.722,-4.643 -4.414,-7.658 -0.762,-3.327 0.01,-7.419 0.741,-10.712 0.42,-1.89 1.15,-3.964 2.901,-4.791 1.867,-0.881 4.078,0.03 6.127,-0.224 2.511,-0.31 4.473,-2.306 6.863,-3.13 4.25,-1.466 8.777,0.98 12.52,3.469 4.619,3.072 8.815,6.885 13.462,9.865 C 5.9,-8.077 6.513,-7.725 7.133,-7.39 5.961,-4.04 3.371,-1.156 0,0" /></g><g
           transform="translate(374.5035,428.9162)"
           id="g94"><path
             id="path96"
             style="fill:#935535;fill-opacity:1;fill-rule:nonzero;stroke:none"
             d="m 0,0 c -1.213,0.293 -2.428,0.66 -3.675,0.644 -1.247,-0.016 -2.567,-0.492 -3.242,-1.541 -0.715,-1.112 -0.537,-2.609 0.065,-3.786 0.603,-1.176 1.567,-2.118 2.454,-3.098 3.464,-3.827 5.946,-8.539 7.143,-13.561 0.405,-1.701 0.748,-3.582 2.087,-4.706 1.413,-1.186 3.577,-1.11 5.21,-0.252 1.632,0.858 2.829,2.354 3.861,3.883 1.496,2.216 2.754,4.594 3.743,7.079 1.281,3.216 2.11,6.805 1.142,10.129 C 16.07,4.133 6.503,-1.571 0,0" /></g><g
           transform="translate(357.3463,397.0466)"
           id="g98"><path
             id="path100"
             style="fill:#3c1a2b;fill-opacity:1;fill-rule:nonzero;stroke:none"
             d="m 0,0 c 0,-1.67 -1.354,-3.023 -3.023,-3.023 -1.67,0 -3.025,1.353 -3.025,3.023 0,1.67 1.355,3.024 3.025,3.024 C -1.354,3.024 0,1.67 0,0" /></g><g
           transform="translate(335.7985,398.3264)"
           id="g102"><path
             id="path104"
             style="fill:#3c1a2b;fill-opacity:1;fill-rule:nonzero;stroke:none"
             d="m 0,0 c 0,-1.67 -0.865,-3.023 -1.934,-3.023 -1.067,0 -1.932,1.353 -1.932,3.023 0,1.67 0.865,3.024 1.932,3.024 C -0.865,3.024 0,1.67 0,0" /></g><g
           transform="translate(330.7037,379.2614)"
           id="g106"><path
             id="path108"
             style="fill:none;stroke:#47112c;stroke-width:0.5;stroke-linecap:round;stroke-linejoin:round;stroke-miterlimit:10;stroke-dasharray:none;stroke-opacity:1"
             d="M 0,0 C -0.215,-3.543 0.579,-7.142 2.266,-10.266" /></g><g
           transform="translate(325.9811,386.1555)"
           id="g110"><path
             id="path112"
             style="fill:#f97a5a;fill-opacity:1;fill-rule:nonzero;stroke:none"
             d="m 0,0 c -0.853,-0.805 -0.884,-2.128 -0.856,-3.3 0.009,-0.408 0.026,-0.837 0.241,-1.183 0.383,-0.616 1.219,-0.726 1.944,-0.753 0.344,-0.012 0.704,-0.025 0.999,-0.202 0.459,-0.276 0.613,-0.853 0.775,-1.364 0.167,-0.529 0.389,-1.057 0.781,-1.45 0.39,-0.393 0.981,-0.626 1.512,-0.468 1.374,0.408 1.411,2.895 2.841,2.986 0.271,0.017 0.536,-0.068 0.8,-0.135 0.834,-0.21 1.773,-0.219 2.495,0.247 1.208,0.779 1.298,2.669 0.435,3.819 C 10.41,0.267 1.988,1.876 0,0" /></g><g
           transform="translate(334.0348,380.4274)"
           id="g114"><path
             id="path116"
             style="fill:none;stroke:#47112c;stroke-width:0.5;stroke-linecap:round;stroke-linejoin:round;stroke-miterlimit:10;stroke-dasharray:none;stroke-opacity:1"
             d="m 0,0 c 0.447,0.48 0.925,0.947 1.504,1.256 0.579,0.308 1.278,0.445 1.9,0.237" /></g><g
           transform="translate(328.3483,380.8688)"
           id="g118"><path
             id="path120"
             style="fill:none;stroke:#47112c;stroke-width:0.5;stroke-linecap:round;stroke-linejoin:round;stroke-miterlimit:10;stroke-dasharray:none;stroke-opacity:1"
             d="M 0,0 C -0.495,0.861 -1.026,1.759 -1.878,2.271" /></g><g
           transform="translate(327.942,376.28)"
           id="g122"><path
             id="path124"
             style="fill:#7a4024;fill-opacity:1;fill-rule:nonzero;stroke:none"
             d="m 0,0 c 0,-0.294 -0.239,-0.532 -0.533,-0.532 -0.294,0 -0.532,0.238 -0.532,0.532 0,0.294 0.238,0.532 0.532,0.532 C -0.239,0.532 0,0.294 0,0" /></g><g
           transform="translate(326.8766,372.7433)"
           id="g126"><path
             id="path128"
             style="fill:#7a4024;fill-opacity:1;fill-rule:nonzero;stroke:none"
             d="m 0,0 c 0,-0.294 -0.238,-0.532 -0.532,-0.532 -0.294,0 -0.532,0.238 -0.532,0.532 0,0.294 0.238,0.533 0.532,0.533 C -0.238,0.533 0,0.294 0,0" /></g><g
           transform="translate(336.8629,375.215)"
           id="g130"><path
             id="path132"
             style="fill:#7a4024;fill-opacity:1;fill-rule:nonzero;stroke:none"
             d="m 0,0 c 0,-0.294 -0.238,-0.532 -0.532,-0.532 -0.294,0 -0.532,0.238 -0.532,0.532 0,0.294 0.238,0.533 0.532,0.533 C -0.238,0.533 0,0.294 0,0" /></g><g
           transform="translate(339.0524,371.6784)"
           id="g134"><path
             id="path136"
             style="fill:#7a4024;fill-opacity:1;fill-rule:nonzero;stroke:none"
             d="m 0,0 c 0,-0.294 -0.238,-0.532 -0.532,-0.532 -0.294,0 -0.532,0.238 -0.532,0.532 0,0.294 0.238,0.533 0.532,0.533 C -0.238,0.533 0,0.294 0,0" /></g><g
           transform="translate(340.8326,374.1286)"
           id="g138"><path
             id="path140"
             style="fill:#7a4024;fill-opacity:1;fill-rule:nonzero;stroke:none"
             d="m 0,0 c 0,-0.294 -0.238,-0.533 -0.533,-0.533 -0.294,0 -0.532,0.239 -0.532,0.533 0,0.294 0.238,0.532 0.532,0.532 C -0.238,0.532 0,0.294 0,0" /></g><g
           transform="translate(354.108,356.3688)"
           id="g142"><path
             id="path144"
             style="fill:#f9a048;fill-opacity:1;fill-rule:nonzero;stroke:none"
             d="m 0,0 c 0,-2.526 -2.048,-4.575 -4.574,-4.575 -2.527,0 -4.574,2.049 -4.574,4.575 0,2.526 2.047,4.575 4.574,4.575 C -2.048,4.575 0,2.526 0,0" /></g><g
           transform="translate(368.4781,322.4084)"
           id="g146"><path
             id="path148"
             style="fill:#ad6b4a;fill-opacity:1;fill-rule:nonzero;stroke:none"
             d="m 0,0 c 0.49,-18.963 2.695,-37.937 1.349,-56.858 -0.269,-3.766 -0.982,-9.714 -3.051,-12.973 -0.724,-1.14 -1.899,-1.907 -2.815,-2.9 -0.915,-0.994 -1.58,-2.468 -0.983,-3.68 0.711,-1.444 2.678,-1.62 4.282,-1.492 1.703,0.136 3.398,0.39 5.067,0.759 1.287,0.285 2.609,0.665 3.592,1.542 0.89,0.794 1.411,1.912 1.873,3.01 4.065,9.641 5.331,20.238 7.511,30.411 2.396,11.179 4.981,22.317 7.753,33.409 1.303,5.211 2.657,10.512 2.368,15.876 C 26.459,16.134 19.397,25.435 9.34,22.791 0.463,20.457 -0.187,7.221 0,0" /></g><g
           transform="translate(368.0231,244.6716)"
           id="g150"><path
             id="path152"
             style="fill:none;stroke:#47112c;stroke-width:0.5;stroke-linecap:round;stroke-linejoin:round;stroke-miterlimit:10;stroke-dasharray:none;stroke-opacity:1"
             d="M 0,0 C -0.335,1.344 0.239,2.866 1.377,3.655" /></g><g
           transform="translate(364.0201,244.8952)"
           id="g154"><path
             id="path156"
             style="fill:none;stroke:#47112c;stroke-width:0.5;stroke-linecap:round;stroke-linejoin:round;stroke-miterlimit:10;stroke-dasharray:none;stroke-opacity:1"
             d="M 0,0 C -0.291,1.39 0.141,2.91 1.117,3.94" /></g><g
           transform="translate(368.9518,252.0793)"
           id="g158"><path
             id="path160"
             style="fill:none;stroke:#47112c;stroke-width:0.5;stroke-linecap:round;stroke-linejoin:round;stroke-miterlimit:10;stroke-dasharray:none;stroke-opacity:1"
             d="M 0,0 C 1.121,-0.242 2.242,-0.484 3.363,-0.726" /></g><g
           transform="translate(369.4391,303.3581)"
           id="g162"><path
             id="path164"
             style="fill:none;stroke:#47112c;stroke-width:0.5;stroke-linecap:round;stroke-linejoin:round;stroke-miterlimit:10;stroke-dasharray:none;stroke-opacity:1"
             d="M 0,0 C -0.324,8.783 -0.648,17.566 -0.973,26.349" /></g><g
           transform="translate(342.9801,326.4074)"
           id="g166"><path
             id="path168"
             style="fill:none;stroke:#47112c;stroke-width:0.5;stroke-linecap:round;stroke-linejoin:round;stroke-miterlimit:10;stroke-dasharray:none;stroke-opacity:1"
             d="m 0,0 c 3.351,-8.817 10.289,-16.21 18.875,-20.114 0.2,-0.091 0.437,-0.236 0.416,-0.455 -0.02,-0.22 -0.477,-0.131 -0.334,0.038" /></g><g
           transform="translate(393.2125,294.071)"
           id="g170"><path
             id="path172"
             style="fill:#ad6b4a;fill-opacity:1;fill-rule:nonzero;stroke:none"
             d="m 0,0 c -5.98,-11.941 -4.242,-27.333 4.25,-37.64 -6.096,-1.334 -12.799,-3.067 -16.256,-8.262 -0.763,-1.147 -1.237,-2.891 -0.156,-3.745 0.473,-0.374 1.11,-0.444 1.711,-0.494 11.15,-0.926 22.449,-0.047 33.321,2.595 1.028,0.25 2.105,0.544 2.859,1.286 0.953,0.938 1.182,2.373 1.859,3.526 1.43,2.436 4.504,3.203 7.052,4.423 10.994,5.268 12.512,17.391 9.735,27.929 -1.788,6.781 -4.049,13.438 -6.761,19.906 -1.073,2.559 -2.303,5.201 -4.522,6.867 C 27.432,20.642 19.203,17.532 13.824,14.42 7.98,11.041 3.033,6.056 0,0" /></g><g
           transform="translate(382.8502,244.2585)"
           id="g174"><path
             id="path176"
             style="fill:none;stroke:#47112c;stroke-width:0.5;stroke-linecap:round;stroke-linejoin:round;stroke-miterlimit:10;stroke-dasharray:none;stroke-opacity:1"
             d="M 0,0 C 0.013,1.19 0.602,2.362 1.549,3.084" /></g><g
           transform="translate(386.4869,243.8835)"
           id="g178"><path
             id="path180"
             style="fill:none;stroke:#47112c;stroke-width:0.5;stroke-linecap:round;stroke-linejoin:round;stroke-miterlimit:10;stroke-dasharray:none;stroke-opacity:1"
             d="M 0,0 C 0.171,1.225 0.973,2.344 2.077,2.9" /></g><g
           transform="translate(398.7389,255.9348)"
           id="g182"><path
             id="path184"
             style="fill:none;stroke:#47112c;stroke-width:0.5;stroke-linecap:round;stroke-linejoin:round;stroke-miterlimit:10;stroke-dasharray:none;stroke-opacity:1"
             d="M 0,0 C 2.921,-1.031 6.031,-1.521 9.128,-1.437" /></g><g
           transform="translate(437.7643,283.5305)"
           id="g186"><path
             id="path188"
             style="fill:none;stroke:#47112c;stroke-width:0.5;stroke-linecap:round;stroke-linejoin:round;stroke-miterlimit:10;stroke-dasharray:none;stroke-opacity:1"
             d="M 0,0 C 1.359,-5.009 1.536,-10.335 0.513,-15.424" /></g><g
           transform="translate(401.0201,358.3991)"
           id="g190"><path
             id="path192"
             style="fill:#f0c198;fill-opacity:1;fill-rule:nonzero;stroke:none"
             d="m 0,0 c -1.759,2.483 -3.547,4.991 -5.297,7.533 -0.444,-4.798 -1.667,-9.746 -0.252,-14.299 1.147,-3.687 3.9,-6.657 5.425,-10.204 3.116,-7.25 1.075,-16.683 6.488,-22.425 4.384,-4.65 11.813,-4.729 17.09,-8.334 1.51,-1.031 2.821,-2.334 4.25,-3.469 -1.247,4.053 -2.725,8.038 -4.401,11.92 C 17.258,-25.275 8.815,-12.446 0,0" /></g><g
           transform="translate(419.5514,290.9274)"
           id="g194"><path
             id="path196"
             style="fill:#f0c198;fill-opacity:1;fill-rule:nonzero;stroke:none"
             d="m 0,0 c 1.381,-2.241 3.754,-4.515 6.281,-3.779 1.454,0.423 2.481,1.793 2.894,3.25 0.413,1.457 0.312,3.005 0.172,4.513 -0.339,3.627 -0.942,7.377 -3,10.382 C 4.161,17.557 -1.396,20.783 -3.682,16.34 -5.946,11.938 -2.298,3.73 0,0" /></g><g
           transform="translate(352.9713,409.0373)"
           id="g198"><path
             id="path200"
             style="fill:none;stroke:#47112c;stroke-width:0.5;stroke-linecap:round;stroke-linejoin:round;stroke-miterlimit:10;stroke-dasharray:none;stroke-opacity:1"
             d="M 0,0 C 3.086,1.784 7.571,0.333 9.028,-2.92" /></g><g
           transform="translate(330.0563,409.2028)"
           id="g202"><path
             id="path204"
             style="fill:none;stroke:#47112c;stroke-width:0.5;stroke-linecap:round;stroke-linejoin:round;stroke-miterlimit:10;stroke-dasharray:none;stroke-opacity:1"
             d="M 0,0 C 0.473,0.803 0.963,1.625 1.699,2.195 2.437,2.765 3.487,3.03 4.312,2.599 5.104,2.186 5.586,1.21 6.467,1.068" /></g><g
           transform="translate(357.3688,372.6467)"
           id="g206"><path
             id="path208"
             style="fill:none;stroke:#47112c;stroke-width:0.5;stroke-linecap:round;stroke-linejoin:round;stroke-miterlimit:10;stroke-dasharray:none;stroke-opacity:1"
             d="M 0,0 C 1.644,2.555 2.304,5.726 1.815,8.724" /></g><g
           transform="translate(357.2906,380.2961)"
           id="g210"><path
             id="path212"
             style="fill:none;stroke:#47112c;stroke-width:0.5;stroke-linecap:round;stroke-linejoin:round;stroke-miterlimit:10;stroke-dasharray:none;stroke-opacity:1"
             d="M 0,0 C 1.003,1.081 2.529,1.651 3.995,1.495" /></g><g
           transform="translate(338.6158,425.4152)"
           id="g214"><path
             id="path216"
             style="fill:none;stroke:#47112c;stroke-width:0.5;stroke-linecap:round;stroke-linejoin:round;stroke-miterlimit:10;stroke-dasharray:none;stroke-opacity:1"
             d="m 0,0 c -1.383,0.098 -2.804,0.132 -4.121,-0.301 -3.16,-1.039 -4.843,-4.353 -6.712,-7.105 -0.894,-1.316 -1.896,-2.559 -2.993,-3.711 -0.881,-0.925 -1.873,-1.821 -3.103,-2.169" /></g><g
           transform="translate(379.6295,426.7702)"
           id="g218"><path
             id="path220"
             style="fill:none;stroke:#47112c;stroke-width:0.5;stroke-linecap:round;stroke-linejoin:round;stroke-miterlimit:10;stroke-dasharray:none;stroke-opacity:1"
             d="M 0,0 C 2.881,-2.546 3.113,-6.93 5.062,-10.243" /></g><g
           transform="translate(175.965,184.779)"
           id="g222"><path
             id="path224"
             style="fill:#d4783a;fill-opacity:1;fill-rule:nonzero;stroke:none"
             d="m 0,0 c 9.374,0.437 13.361,11.073 13.787,18.993 0.31,5.765 -0.828,11.511 -2.282,17.098 -0.203,0.78 -0.393,1.681 0.079,2.338 1.552,2.155 5.601,-8.158 5.96,-9.171 1.825,-5.152 2.644,-10.662 2.361,-16.122 -0.351,-6.756 -3.363,-13.299 -7.753,-18.401 -4.92,-5.716 -12.528,-8.504 -19.808,-6.173 -3.192,1.023 -6.329,2.644 -8.33,5.333 -2.259,3.034 -3.083,9.051 1.571,10.217 C -9.99,5.222 -4.821,-0.226 0,0" /></g><g
           transform="translate(193.5089,214.0368)"
           id="g226"><path
             id="path228"
             style="fill:#d99a5c;fill-opacity:1;fill-rule:nonzero;stroke:none"
             d="M 0,0 C -0.359,1.013 -4.408,11.326 -5.96,9.171 -6.432,8.515 -6.242,7.613 -6.039,6.833 -4.585,1.246 -3.447,-4.5 -3.757,-10.265 c -0.267,-4.966 -1.936,-11.001 -5.454,-14.919 0.148,-0.34 0.365,-0.628 0.703,-0.779 0.631,-0.28 1.348,0.07 1.947,0.412 l 2.771,1.582 c 0.43,0.245 0.957,0.493 1.393,0.262 0.317,-0.168 0.464,-0.532 0.618,-0.857 0.35,-0.738 0.887,-1.41 1.557,-1.866 1.472,3.259 2.398,6.752 2.583,10.308 C 2.644,-10.662 1.825,-5.151 0,0" /></g><g
           transform="translate(145.3727,130.9343)"
           id="g230"><path
             id="path232"
             style="fill:#d4783a;fill-opacity:1;fill-rule:nonzero;stroke:none"
             d="m 0,0 c -0.599,-4.29 -1.373,-8.62 -0.895,-12.925 0.313,-2.822 1.157,-5.558 1.633,-8.357 1.64,-9.64 -1.134,-19.421 -1.75,-29.18 -0.28,-4.427 0.144,-14.15 -4.847,-16.171 -2.003,-0.81 -4.246,-0.68 -6.4,-0.501 -1.333,0.111 -2.888,0.377 -3.5,1.567 -0.316,0.613 -0.295,1.342 -0.209,2.027 0.611,4.889 4.041,7.512 4.009,12.763 -0.026,4.244 -0.052,8.487 -0.078,12.731 -0.053,8.521 -3.833,13.904 -6.737,21.762 -3.209,8.682 -5.748,17.594 -8.288,26.489 -2.136,7.479 -4.282,15.398 -2.308,22.92 1.992,7.591 9.356,17.804 17.8,18.761 6.121,0.693 7.674,-5.244 9.249,-10.121 C 2.009,28.351 1.932,13.834 0,0" /></g><g
           transform="translate(131.9791,64.112)"
           id="g234"><path
             id="path236"
             style="fill:none;stroke:#790d00;stroke-width:0.5;stroke-linecap:round;stroke-linejoin:round;stroke-miterlimit:10;stroke-dasharray:none;stroke-opacity:1"
             d="M 0,0 C -0.353,1.235 -0.299,2.583 0.15,3.786" /></g><g
           transform="translate(135.3815,63.9977)"
           id="g238"><path
             id="path240"
             style="fill:none;stroke:#790d00;stroke-width:0.5;stroke-linecap:round;stroke-linejoin:round;stroke-miterlimit:10;stroke-dasharray:none;stroke-opacity:1"
             d="M 0,0 C 0.084,1.129 0.398,2.24 0.917,3.247" /></g><g
           transform="translate(134.6583,71.737)"
           id="g242"><path
             id="path244"
             style="fill:none;stroke:#790d00;stroke-width:0.5;stroke-linecap:round;stroke-linejoin:round;stroke-miterlimit:10;stroke-dasharray:none;stroke-opacity:1"
             d="M 0,0 C 1.249,0.182 2.515,0.243 3.776,0.181" /></g><g
           transform="translate(133.3156,106.0671)"
           id="g246"><path
             id="path248"
             style="fill:none;stroke:#790d00;stroke-width:0.5;stroke-linecap:round;stroke-linejoin:round;stroke-miterlimit:10;stroke-dasharray:none;stroke-opacity:1"
             d="M 0,0 C 1.658,-1.165 3.798,-1.617 5.785,-1.225" /></g><g
           transform="translate(79.4967,148.9548)"
           id="g250"><path
             id="path252"
             style="fill:#d99a5c;fill-opacity:1;fill-rule:nonzero;stroke:none"
             d="m 0,0 c 0.066,-0.309 0.135,-0.616 0.206,-0.924 1.475,-6.415 3.891,-12.757 8.137,-17.947 9.758,-11.932 28.3,-12.948 41.371,-5.215 4.491,2.657 9.863,5.928 13.66,9.401 3.711,3.395 6.388,7.72 10.689,10.545 3.922,2.578 8.756,3.619 12.834,5.969 7.846,4.521 11.989,13.93 10.373,22.472 -1.616,8.542 -8.628,15.829 -17.301,18.657 -4.965,1.619 -11.002,2.538 -16.201,2.58 -5.212,0.042 -9.725,0.275 -14.351,3.07 -2.589,1.565 -4.843,3.64 -7.443,5.188 -3.581,2.133 -7.02,1.77 -10.945,2.138 -3.968,0.372 -8.014,-0.413 -11.71,-1.845 -3.404,-1.32 -5.617,-2.823 -7.957,-5.771 C 0.462,34.582 -3.682,17.088 0,0" /></g><g
           transform="translate(94.5973,177.7067)"
           id="g254"><path
             id="path256"
             style="fill:#f9ad33;fill-opacity:1;fill-rule:nonzero;stroke:none"
             d="m 0,0 c 3.777,-1.97 8.074,-3.445 12.351,-2.88 2.959,0.392 5.688,1.734 8.184,3.29 4.24,2.646 7.41,6.064 9.79,10.526 1.136,2.131 4.271,9.382 1.733,11.34 -0.343,0.265 -1.485,0.156 -1.93,0.275 -1.085,0.288 -2.161,0.885 -3.205,1.301 -2.314,0.919 -4.643,1.801 -7.02,2.546 C 14.826,27.991 9.175,27.258 4.219,25.337 -0.119,23.655 -5.552,22.065 -8.31,17.973 -10.906,14.121 -9.01,7.747 -5.937,4.801 -4.018,2.96 -2.369,1.235 0,0" /></g><g
           transform="translate(108.6613,170.6989)"
           id="g258"><path
             id="path260"
             style="fill:#f9d672;fill-opacity:1;fill-rule:nonzero;stroke:none"
             d="m 0,0 c 0.051,-2.857 -2.224,-5.216 -5.082,-5.268 -2.857,-0.05 -5.215,2.224 -5.267,5.082 C -10.4,2.672 -8.125,5.03 -5.268,5.081 -2.41,5.133 -0.051,2.857 0,0" /></g><g
           transform="translate(99.9562,148.8835)"
           id="g262"><path
             id="path264"
             style="fill:#d99a5c;fill-opacity:1;fill-rule:nonzero;stroke:none"
             d="m 0,0 c -1.741,4.294 -4.888,7.953 -8.743,10.496 -1.951,1.288 -4.09,2.296 -6.331,2.962 -2.383,0.707 -4.481,1.813 -6.518,3.417 -1.324,-10.337 -1.94,-21.516 -1.068,-31.912 1.076,-12.836 3.286,-25.545 4.428,-38.373 0.91,-10.214 2.993,-22.809 -1.157,-32.567 -1.324,-3.109 -4.014,-4.044 -4.455,-7.668 -0.095,-0.786 -0.102,-1.655 0.381,-2.282 0.541,-0.704 1.515,-0.879 2.399,-0.967 2.139,-0.21 4.3,-0.208 6.439,0.01 1.086,0.111 2.204,0.29 3.117,0.888 1.267,0.828 1.929,2.324 2.292,3.793 0.592,2.401 0.905,4.739 1.101,7.192 1.545,19.332 4.174,38.577 7.87,57.615 C 1.521,-18.295 3.483,-8.591 0,0" /></g><g
           transform="translate(90.3766,76.7712)"
           id="g266"><path
             id="path268"
             style="fill:#d4783a;fill-opacity:1;fill-rule:nonzero;stroke:none"
             d="m 0,0 c -1.018,-1.266 -2.801,-2.363 -4.181,-1.508 -0.521,0.323 -0.862,0.867 -1.331,1.262 -0.52,0.439 -1.166,0.58 -1.81,0.513 -0.04,-4.964 -0.656,-9.825 -2.488,-14.131 -1.323,-3.11 -4.014,-4.045 -4.454,-7.668 -0.096,-0.786 -0.103,-1.655 0.38,-2.282 0.542,-0.705 1.516,-0.879 2.399,-0.967 2.14,-0.211 4.301,-0.208 6.44,0.01 1.086,0.11 2.204,0.29 3.117,0.887 1.266,0.828 1.929,2.324 2.291,3.793 0.593,2.402 0.906,4.739 1.101,7.193 C 1.893,-7.543 2.413,-2.196 3.006,3.143 1.722,2.527 0.917,1.141 0,0" /></g><g
           transform="translate(78.9913,52.5329)"
           id="g270"><path
             id="path272"
             style="fill:none;stroke:#790d00;stroke-width:0.5;stroke-linecap:round;stroke-linejoin:round;stroke-miterlimit:10;stroke-dasharray:none;stroke-opacity:1"
             d="M 0,0 C -0.326,1.307 -0.197,2.722 0.36,3.947" /></g><g
           transform="translate(84.1354,51.9821)"
           id="g274"><path
             id="path276"
             style="fill:none;stroke:#790d00;stroke-width:0.5;stroke-linecap:round;stroke-linejoin:round;stroke-miterlimit:10;stroke-dasharray:none;stroke-opacity:1"
             d="M 0,0 C -0.289,1.613 -0.05,3.317 0.669,4.79" /></g><g
           transform="translate(82.7462,61.6413)"
           id="g278"><path
             id="path280"
             style="fill:none;stroke:#790d00;stroke-width:0.5;stroke-linecap:round;stroke-linejoin:round;stroke-miterlimit:10;stroke-dasharray:none;stroke-opacity:1"
             d="M 0,0 C 1.448,-0.024 2.896,-0.049 4.345,-0.072" /></g><g
           transform="translate(121.1774,148.946)"
           id="g282"><path
             id="path284"
             style="fill:#d99a5c;fill-opacity:1;fill-rule:nonzero;stroke:none"
             d="m 0,0 c 1.809,4.266 5.012,7.874 8.907,10.356 1.971,1.257 4.126,2.231 6.378,2.862 2.393,0.67 4.785,0.682 6.848,2.255 1.16,-10.357 1.322,-20.485 0.287,-30.867 -1.278,-12.817 -3.689,-25.489 -5.034,-38.298 -1.07,-10.199 -3.352,-22.758 0.644,-32.58 1.274,-3.13 3.949,-4.108 4.333,-7.738 0.083,-0.787 0.076,-1.656 -0.417,-2.276 -0.552,-0.694 -1.529,-0.855 -2.414,-0.928 -2.142,-0.178 -4.303,-0.14 -6.438,0.111 -1.084,0.127 -2.199,0.325 -3.103,0.936 -1.253,0.849 -1.892,2.354 -2.231,3.829 -0.554,2.41 -0.83,4.753 -0.988,7.21 -1.24,19.354 -3.565,38.638 -6.959,57.732 C -1.811,-18.27 -3.619,-8.535 0,0" /></g><g
           transform="translate(127.8058,76.9313)"
           id="g286"><path
             id="path288"
             style="fill:#d4783a;fill-opacity:1;fill-rule:nonzero;stroke:none"
             d="m 0,0 c -0.287,0.157 -0.59,0.248 -0.898,0.312 0.403,-4.471 0.754,-8.946 1.042,-13.425 0.157,-2.457 0.433,-4.8 0.987,-7.21 0.339,-1.475 0.978,-2.981 2.231,-3.829 0.904,-0.612 2.019,-0.809 3.103,-0.936 2.136,-0.252 4.296,-0.289 6.439,-0.111 0.885,0.073 1.861,0.233 2.414,0.928 0.493,0.62 0.499,1.489 0.416,2.276 -0.383,3.63 -3.059,4.607 -4.333,7.737 -1.14,2.804 -1.757,5.834 -2.049,8.965 C 7.312,-4.985 5.067,-5.1 3.466,-3.814 2.117,-2.731 1.517,-0.834 0,0" /></g><g
           transform="translate(140.6188,52.2761)"
           id="g290"><path
             id="path292"
             style="fill:none;stroke:#790d00;stroke-width:0.5;stroke-linecap:round;stroke-linejoin:round;stroke-miterlimit:10;stroke-dasharray:none;stroke-opacity:1"
             d="M 0,0 C 0.346,1.301 0.24,2.718 -0.298,3.952" /></g><g
           transform="translate(135.4664,51.8063)"
           id="g294"><path
             id="path296"
             style="fill:none;stroke:#790d00;stroke-width:0.5;stroke-linecap:round;stroke-linejoin:round;stroke-miterlimit:10;stroke-dasharray:none;stroke-opacity:1"
             d="M 0,0 C 0.314,1.608 0.103,3.316 -0.594,4.8" /></g><g
           transform="translate(137.0079,61.4421)"
           id="g298"><path
             id="path300"
             style="fill:none;stroke:#790d00;stroke-width:0.5;stroke-linecap:round;stroke-linejoin:round;stroke-miterlimit:10;stroke-dasharray:none;stroke-opacity:1"
             d="M 0,0 C -1.448,-0.001 -2.897,-0.002 -4.345,-0.004" /></g><g
           transform="translate(99.6413,122.6306)"
           id="g302"><path
             id="path304"
             style="fill:none;stroke:#790d00;stroke-width:0.5;stroke-linecap:round;stroke-linejoin:round;stroke-miterlimit:10;stroke-dasharray:none;stroke-opacity:1"
             d="M 0,0 C -6.184,4.397 -10.881,10.849 -13.167,18.084" /></g><g
           transform="translate(180.507,129.569)"
           id="g306"><path
             id="path308"
             style="fill:#d99a5c;fill-opacity:1;fill-rule:nonzero;stroke:none"
             d="m 0,0 c -0.599,-4.289 -1.373,-8.619 -0.895,-12.924 0.313,-2.823 1.157,-5.558 1.634,-8.358 1.639,-9.639 -1.135,-19.42 -1.751,-29.179 -0.28,-4.427 0.144,-14.15 -4.847,-16.171 -2.002,-0.81 -4.246,-0.68 -6.399,-0.501 -1.334,0.111 -2.889,0.376 -3.501,1.567 -0.316,0.613 -0.294,1.342 -0.209,2.027 0.611,4.889 4.041,7.512 4.009,12.762 -0.026,4.244 -0.052,8.488 -0.078,12.732 -0.052,8.521 -3.833,13.904 -6.737,21.761 -3.209,8.682 -5.748,17.595 -8.288,26.49 -2.136,7.478 -4.281,15.398 -2.308,22.92 1.992,7.591 9.356,17.804 17.801,18.761 6.12,0.693 7.673,-5.244 9.248,-10.122 C 2.009,28.352 1.933,13.834 0,0" /></g><g
           transform="translate(167.1134,62.7477)"
           id="g310"><path
             id="path312"
             style="fill:none;stroke:#790d00;stroke-width:0.5;stroke-linecap:round;stroke-linejoin:round;stroke-miterlimit:10;stroke-dasharray:none;stroke-opacity:1"
             d="M 0,0 C -0.353,1.235 -0.299,2.582 0.15,3.785" /></g><g
           transform="translate(170.5158,62.6335)"
           id="g314"><path
             id="path316"
             style="fill:none;stroke:#790d00;stroke-width:0.5;stroke-linecap:round;stroke-linejoin:round;stroke-miterlimit:10;stroke-dasharray:none;stroke-opacity:1"
             d="M 0,0 C 0.084,1.129 0.398,2.24 0.917,3.247" /></g><g
           transform="translate(169.7931,70.3718)"
           id="g318"><path
             id="path320"
             style="fill:none;stroke:#790d00;stroke-width:0.5;stroke-linecap:round;stroke-linejoin:round;stroke-miterlimit:10;stroke-dasharray:none;stroke-opacity:1"
             d="M 0,0 C 1.249,0.183 2.515,0.243 3.775,0.182" /></g><g
           transform="translate(168.4503,104.7018)"
           id="g322"><path
             id="path324"
             style="fill:none;stroke:#790d00;stroke-width:0.5;stroke-linecap:round;stroke-linejoin:round;stroke-miterlimit:10;stroke-dasharray:none;stroke-opacity:1"
             d="M 0,0 C 1.657,-1.164 3.798,-1.617 5.785,-1.224" /></g><g
           transform="translate(151.5465,143.3825)"
           id="g326"><path
             id="path328"
             style="fill:none;stroke:#790d00;stroke-width:0.5;stroke-linecap:round;stroke-linejoin:round;stroke-miterlimit:10;stroke-dasharray:none;stroke-opacity:1"
             d="m 0,0 c 2.552,2.742 5.706,4.921 9.174,6.336 1.128,0.46 2.338,0.873 3.158,1.774" /></g><g
           transform="translate(88.7789,248.9816)"
           id="g330"><path
             id="path332"
             style="fill:#d99a5c;fill-opacity:1;fill-rule:nonzero;stroke:none"
             d="m 0,0 c -5.038,-4.102 -6.245,-10.891 -7.854,-16.679 -0.964,-3.471 -2.314,-6.822 -3.254,-10.3 -0.876,-3.24 -0.698,-6.688 -0.807,-10.063 -0.047,-1.438 -0.093,-2.887 0.14,-4.308 0.932,-5.682 5.515,-7.831 8.596,-12.03 2.908,-3.965 4.905,-7.738 9.682,-9.959 5.41,-2.516 11.916,-1.783 17.311,0.764 2.374,1.121 5.056,2.534 6.647,4.604 1.452,1.886 2.533,3.727 4.321,5.389 3.303,3.072 7.373,5.673 9.303,9.915 1.907,4.188 1.043,8.533 0.334,12.868 -0.627,3.838 -0.392,7.591 -1.534,11.454 -1.207,4.076 -2.505,8.149 -4.424,11.943 -1.202,2.378 -2.741,4.73 -5.071,6.024 C 28.595,2.281 21.315,0.646 15.975,1.344 10.803,2.02 4.453,3.626 0,0" /></g><g
           transform="translate(105.9367,222.8503)"
           id="g334"><path
             id="path336"
             style="fill:#d4783a;fill-opacity:1;fill-rule:nonzero;stroke:none"
             d="m 0,0 c -0.607,-2.057 -0.837,-4.358 0.115,-6.278 0.771,-1.555 2.206,-2.653 3.331,-3.973 1.411,-1.655 2.336,-3.667 3.625,-5.419 1.288,-1.752 3.131,-3.317 5.304,-3.412 1.756,-0.076 3.414,0.823 4.791,1.917 1.134,0.9 2.166,1.973 2.804,3.272 1.475,3.008 0.617,6.584 -0.268,9.815 -0.63,2.301 -1.26,4.601 -1.89,6.901 C 17.379,4.404 16.941,5.998 16.19,7.454 15.438,8.91 14.34,10.237 12.876,10.975 9.887,12.481 7.028,10.183 4.976,8.188 2.661,5.938 0.915,3.098 0,0" /></g><g
           transform="translate(93.5065,250.777)"
           id="g338"><path
             id="path340"
             style="fill:#ad622e;fill-opacity:1;fill-rule:nonzero;stroke:none"
             d="m 0,0 c -0.573,1.316 -1.742,2.251 -3.744,2.272 -1.31,0.014 -2.508,-0.69 -3.616,-1.39 -1.753,-1.107 -3.527,-2.283 -5.553,-2.726 -1.376,-0.301 -2.81,-0.248 -4.186,-0.55 -5.834,-1.282 -8.44,-8.227 -7.169,-13.574 0.437,-1.836 1.21,-3.577 1.687,-5.403 0.796,-3.051 0.746,-6.246 0.873,-9.397 0.052,-1.296 0.465,-2.961 1.757,-3.087 0.444,-0.044 0.88,0.127 1.278,0.329 2.23,1.124 3.846,3.224 4.866,5.505 1.689,3.778 2.261,6.813 4.706,10.228 2.729,3.809 6.352,7.007 8.521,11.206 C 0.397,-4.696 0.842,-1.936 0,0" /></g><g
           transform="translate(120.591,249.4787)"
           id="g342"><path
             id="path344"
             style="fill:#ad622e;fill-opacity:1;fill-rule:nonzero;stroke:none"
             d="m 0,0 c 2.004,0.133 3.937,-0.701 5.735,-1.594 1.798,-0.895 3.612,-1.885 5.609,-2.106 2.733,-0.301 5.85,0.794 8.044,-0.864 2.254,-1.703 1.961,-5.123 1.358,-7.883 -1.427,-6.525 -3.545,-13.307 -8.52,-17.764 -0.498,-0.446 -1.077,-0.886 -1.745,-0.893 -0.898,-0.009 -1.599,0.754 -2.115,1.49 -1.21,1.726 -2.115,3.665 -2.662,5.701 -0.548,2.042 -0.74,4.186 -1.516,6.154 -1.016,2.577 -2.951,4.659 -4.61,6.877 C -2.69,-7.853 -6.796,-0.451 0,0" /></g><g
           transform="translate(118.4181,217.3493)"
           id="g346"><path
             id="path348"
             style="fill:#412317;fill-opacity:1;fill-rule:nonzero;stroke:none"
             d="m 0,0 c 0.03,-1.669 -1.299,-3.047 -2.969,-3.077 -1.67,-0.03 -3.048,1.299 -3.077,2.969 -0.03,1.67 1.299,3.047 2.968,3.077 C -1.408,2.999 -0.03,1.67 0,0" /></g><g
           transform="translate(94.4811,218.9811)"
           id="g350"><path
             id="path352"
             style="fill:#412317;fill-opacity:1;fill-rule:nonzero;stroke:none"
             d="m 0,0 c 0.03,-1.67 -1.299,-3.048 -2.969,-3.078 -1.67,-0.03 -3.048,1.3 -3.078,2.969 -0.03,1.67 1.299,3.047 2.969,3.078 C -1.408,2.998 -0.03,1.669 0,0" /></g><g
           transform="translate(85.2018,226.7126)"
           id="g354"><path
             id="path356"
             style="fill:none;stroke:#790d00;stroke-width:0.5;stroke-linecap:round;stroke-linejoin:round;stroke-miterlimit:10;stroke-dasharray:none;stroke-opacity:1"
             d="M 0,0 C 2.534,2.601 6.88,3.196 10.02,1.373" /></g><g
           transform="translate(111.2755,226.5915)"
           id="g358"><path
             id="path360"
             style="fill:none;stroke:#790d00;stroke-width:0.5;stroke-linecap:round;stroke-linejoin:round;stroke-miterlimit:10;stroke-dasharray:none;stroke-opacity:1"
             d="M 0,0 C 3.873,0.91 8.208,-0.586 10.696,-3.69" /></g><g
           transform="translate(93.8981,198.405)"
           id="g362"><path
             id="path364"
             style="fill:#412317;fill-opacity:1;fill-rule:nonzero;stroke:none"
             d="m 0,0 c 1.762,-1.058 4.15,-1.346 5.819,-0.146 0.701,0.501 1.274,1.25 2.113,1.446 1.241,0.291 2.349,-0.734 3.453,-1.372 2.037,-1.178 4.612,-1.096 6.837,-0.33 1.348,0.464 2.591,1.256 3.828,1.96 0.286,-0.329 0.549,-0.677 0.788,-1.042 -0.005,0.009 -3.027,-2.908 -3.309,-3.152 -1.191,-1.035 -2.502,-1.94 -3.872,-2.721 -5.279,-3.01 -12.141,-2.318 -16.189,2.283 -1.288,1.464 -2.282,3.129 -3.227,4.825 -0.227,0.407 -0.457,0.831 -0.499,1.296 l 0.909,0.384 C -2.808,2.791 -2.259,2.143 -1.667,1.548 -1.147,1.026 -0.639,0.384 0,0" /></g><g
           transform="translate(97.7418,193.8913)"
           id="g366"><path
             id="path368"
             style="fill:#f97b37;fill-opacity:1;fill-rule:nonzero;stroke:none"
             d="m 0,0 c -0.361,-0.193 -0.687,-0.461 -0.953,-0.771 -1.46,-1.698 -2.155,-4.468 -2.038,-6.66 0.069,-1.27 0.411,-2.558 1.192,-3.562 0.78,-1.004 2.047,-1.679 3.311,-1.541 1.675,0.181 2.903,1.653 3.716,3.129 1.277,2.319 2.683,4.267 4.314,6.349 0.212,0.273 0.43,0.553 0.537,0.881 C 10.388,-1.228 9.642,-0.194 8.71,0.158 7.779,0.511 6.74,0.357 5.763,0.165 4.786,-0.028 3.778,-0.257 2.806,-0.043 2.345,0.059 1.905,0.258 1.436,0.308 0.937,0.361 0.443,0.237 0,0" /></g><g
           transform="translate(100.9987,193.0788)"
           id="g370"><path
             id="path372"
             style="fill:none;stroke:#790d00;stroke-width:0.5;stroke-linecap:round;stroke-linejoin:round;stroke-miterlimit:10;stroke-dasharray:none;stroke-opacity:1"
             d="M 0,0 C -1.566,-2.119 -2.334,-4.813 -2.122,-7.44" /></g><g
           transform="translate(115.4152,200.111)"
           id="g374"><path
             id="path376"
             style="fill:none;stroke:#790d00;stroke-width:0.5;stroke-linecap:round;stroke-linejoin:round;stroke-miterlimit:10;stroke-dasharray:none;stroke-opacity:1"
             d="M 0,0 C 0.977,-0.205 1.779,-1.068 1.912,-2.058" /></g><g
           transform="translate(91.2008,202.0134)"
           id="g378"><path
             id="path380"
             style="fill:none;stroke:#790d00;stroke-width:0.5;stroke-linecap:round;stroke-linejoin:round;stroke-miterlimit:10;stroke-dasharray:none;stroke-opacity:1"
             d="M 0,0 C -1.402,-0.208 -2.667,-1.185 -3.222,-2.488" /></g><g
           transform="translate(98.7374,209.8913)"
           id="g382"><path
             id="path384"
             style="fill:#814120;fill-opacity:1;fill-rule:nonzero;stroke:none"
             d="m 0,0 c -3.251,-0.517 -4.636,-2.713 -3.642,-5.226 0.374,-0.945 1.28,-1.796 2.485,-1.962 0.506,-0.071 1.08,-0.033 1.469,-0.298 0.206,-0.141 0.324,-0.347 0.437,-0.546 0.502,-0.889 1.102,-2.213 2.637,-2.091 1.869,0.097 2.325,2.419 4.045,3.063 0.72,0.271 1.56,0.199 2.296,0.438 1.648,0.537 2.038,2.298 1.941,3.725 C 11.499,-0.389 7.635,0.009 5.224,0.104 3.75,0.161 1.758,0.279 0,0" /></g><g
           transform="translate(99.4337,202.5456)"
           id="g386"><path
             id="path388"
             style="fill:none;stroke:#532320;stroke-width:0.5;stroke-linecap:round;stroke-linejoin:round;stroke-miterlimit:10;stroke-dasharray:none;stroke-opacity:1"
             d="M 0,0 C 0.253,1.204 -0.83,2.454 -2.292,2.646" /></g><g
           transform="translate(105.2238,202.4382)"
           id="g390"><path
             id="path392"
             style="fill:none;stroke:#532320;stroke-width:0.5;stroke-linecap:round;stroke-linejoin:round;stroke-miterlimit:10;stroke-dasharray:none;stroke-opacity:1"
             d="M 0,0 C 0.142,1.167 1.226,2.244 2.608,2.592" /></g><g
           transform="translate(106.9733,200.3405)"
           id="g394"><path
             id="path396"
             style="fill:#ac3e00;fill-opacity:1;fill-rule:nonzero;stroke:none"
             d="m 0,0 c 0.197,-0.219 0.18,-0.555 -0.039,-0.752 -0.218,-0.197 -0.555,-0.18 -0.752,0.039 -0.197,0.219 -0.179,0.555 0.039,0.752 C -0.534,0.236 -0.197,0.219 0,0" /></g><g
           transform="translate(110.3165,199.7009)"
           id="g398"><path
             id="path400"
             style="fill:#ac3e00;fill-opacity:1;fill-rule:nonzero;stroke:none"
             d="m 0,0 c 0.197,-0.219 0.179,-0.555 -0.039,-0.752 -0.218,-0.197 -0.555,-0.18 -0.752,0.039 -0.197,0.218 -0.18,0.555 0.039,0.752 C -0.534,0.236 -0.197,0.219 0,0" /></g><g
           transform="translate(98.1998,199.7409)"
           id="g402"><path
             id="path404"
             style="fill:#ac3e00;fill-opacity:1;fill-rule:nonzero;stroke:none"
             d="m 0,0 c 0.197,-0.218 0.18,-0.555 -0.039,-0.752 -0.218,-0.197 -0.555,-0.18 -0.752,0.039 -0.197,0.219 -0.179,0.555 0.039,0.752 C -0.534,0.236 -0.197,0.219 0,0" /></g><g
           transform="translate(94.3517,201.1061)"
           id="g406"><path
             id="path408"
             style="fill:#ac3e00;fill-opacity:1;fill-rule:nonzero;stroke:none"
             d="m 0,0 c 0.197,-0.219 0.18,-0.556 -0.039,-0.752 -0.218,-0.197 -0.555,-0.18 -0.752,0.038 -0.197,0.219 -0.179,0.556 0.039,0.752 C -0.534,0.235 -0.197,0.218 0,0" /></g><g
           transform="translate(97.3639,202.1667)"
           id="g410"><path
             id="path412"
             style="fill:#ac3e00;fill-opacity:1;fill-rule:nonzero;stroke:none"
             d="m 0,0 c 0.197,-0.218 0.18,-0.555 -0.039,-0.752 -0.218,-0.196 -0.555,-0.18 -0.752,0.039 -0.196,0.219 -0.179,0.555 0.039,0.752 C -0.533,0.236 -0.197,0.219 0,0" /></g><g
           transform="translate(110.6486,202.1911)"
           id="g414"><path
             id="path416"
             style="fill:#ac3e00;fill-opacity:1;fill-rule:nonzero;stroke:none"
             d="m 0,0 c 0.197,-0.218 0.18,-0.555 -0.039,-0.752 -0.218,-0.196 -0.555,-0.179 -0.752,0.039 -0.197,0.219 -0.179,0.556 0.039,0.752 C -0.534,0.236 -0.197,0.219 0,0" /></g><g
           transform="translate(129.8224,244.7712)"
           id="g418"><path
             id="path420"
             style="fill:none;stroke:#790d00;stroke-width:0.5;stroke-linecap:round;stroke-linejoin:round;stroke-miterlimit:10;stroke-dasharray:none;stroke-opacity:1"
             d="M 0,0 C 0.708,-2.91 1.911,-5.699 3.541,-8.212 4.042,-8.984 4.776,-9.821 5.688,-9.694" /></g><g
           transform="translate(79.4171,245.6061)"
           id="g422"><path
             id="path424"
             style="fill:none;stroke:#790d00;stroke-width:0.5;stroke-linecap:round;stroke-linejoin:round;stroke-miterlimit:10;stroke-dasharray:none;stroke-opacity:1"
             d="M 0,0 C -2.476,-2.943 -3.999,-6.676 -4.288,-10.512" /></g><g
           transform="translate(117.1837,350.34)"
           id="g426"><path
             id="path428"
             style="fill:#e0af82;fill-opacity:1;fill-rule:nonzero;stroke:none"
             d="m 0,0 c 9.625,4.313 21.698,-1.561 15.809,-13.215 -1.828,-3.617 -4.886,-6.432 -7.878,-9.164 -9.688,-8.842 -19.103,-19.773 -31.702,-24.39 -7.418,-2.718 -15.635,-1.752 -23.434,-3.018 -5.024,-0.816 -9.856,-2.558 -14.857,-3.507 -0.703,-0.134 -1.539,-0.212 -2.031,0.308 -0.321,0.339 -0.393,0.838 -0.425,1.304 -0.251,3.672 1.702,7.943 5.339,8.506 2.021,0.312 4.015,-0.586 6.048,-0.808 3.952,-0.432 7.685,1.686 11.096,3.728 5.601,3.353 11.32,6.807 15.447,11.863 3.174,3.891 5.251,8.547 8.041,12.723 C -13.991,-8.852 -7.483,-3.354 0,0" /></g><g
           transform="translate(227.216,330.9587)"
           id="g430"><path
             id="path432"
             style="fill:#e0af82;fill-opacity:1;fill-rule:nonzero;stroke:none"
             d="m 0,0 c 7.137,-0.485 14.242,0.958 21.338,1.854 2.701,0.34 5.579,0.574 8.02,-0.632 1.871,-0.926 3.248,-2.587 4.742,-4.044 4.525,-4.414 11.446,-7.234 17.233,-4.687 2.331,1.026 4.411,4.016 2.754,5.95 -1.041,1.217 -2.885,1.163 -4.469,1.4 -7.679,1.151 -11.392,10.43 -18.488,13.582 -6.88,3.056 -15.919,-0.11 -21.783,4.612 -2.466,1.986 -3.819,5.007 -5.084,7.909 -1.317,3.023 -2.634,6.045 -3.951,9.068 -1.216,2.791 -2.495,5.671 -4.749,7.719 -5.095,4.628 -13.523,3.286 -18.993,-0.894 -4.207,-3.214 -7.363,-8.137 -7.409,-13.432 -0.023,-2.684 0.737,-5.324 1.8,-7.789 1.988,-4.607 4.108,-8.256 8.337,-11.045 C -13.748,4.984 -8.741,0.731 0,0" /></g><g
           transform="translate(146.2897,382.8303)"
           id="g434"><path
             id="path436"
             style="fill:#eac3a4;fill-opacity:1;fill-rule:nonzero;stroke:none"
             d="m 0,0 c -4.99,-1.714 -9.885,-3.065 -15.429,-3.612 -7.784,-0.767 -15.617,-0.81 -23.414,-1.393 -8.05,-0.602 -16.448,-1.933 -22.885,-6.804 -6.583,-4.982 -10.195,-13.044 -11.851,-21.132 -1.656,-8.089 -1.616,-16.414 -2.376,-24.635 -0.236,-2.557 -0.59,-5.216 -2.03,-7.341 -1.428,-2.108 -3.73,-3.414 -5.794,-4.903 -4.952,-3.574 -8.855,-8.584 -11.108,-14.261 -1.68,-4.234 -2.456,-8.933 -4.979,-12.798 -2.511,-3.848 -7.305,-6.861 -10.644,-10.109 -0.793,-0.771 -1.604,-1.566 -2.064,-2.572 -0.394,-0.86 -0.507,-1.821 -0.557,-2.767 -0.114,-2.09 0.097,-4.333 1.377,-5.99 1.281,-1.657 3.924,-2.381 5.524,-1.029 0.574,0.486 0.946,1.162 1.305,1.823 3.085,5.674 6.989,11.314 11.727,15.799 7.495,7.251 17.851,11.029 25.184,18.444 7.029,7.108 10.692,16.967 17.534,24.255 15.328,16.328 38.647,13.317 58.153,8.449 15.688,-3.915 32.65,-6.73 47.699,-0.815 5.207,2.047 10.961,3.961 15.172,7.771 0.623,0.563 1.223,1.169 1.64,1.897 0.608,1.062 0.785,2.307 0.961,3.517 0.813,5.604 1.822,11.18 3.024,16.714 0.528,2.426 1.107,4.884 2.342,7.038 1.93,3.365 5.245,5.647 8.195,8.165 0.913,0.78 1.818,1.615 2.373,2.68 0.459,0.879 0.653,1.87 0.782,2.853 1.024,7.836 -1.847,15.597 -5.147,22.565 -2.776,5.86 -5.547,11.316 -11.111,15.058 -0.908,0.61 -1.939,1.188 -3.028,1.078 -0.89,-0.091 -1.663,-0.627 -2.393,-1.143 C 48.822,23.117 28.238,10.466 6.019,2.18 3.967,1.415 1.976,0.679 0,0" /></g><g
           transform="translate(254.4118,433.0432)"
           id="g438"><path
             id="path440"
             style="fill:#ac5f11;fill-opacity:1;fill-rule:nonzero;stroke:none"
             d="m 0,0 c 3.022,1.215 6.402,0.987 9.631,1.418 4.936,0.661 9.51,2.867 14.253,4.387 0.197,0.063 0.424,0.123 0.602,0.018 0.161,-0.094 0.228,-0.29 0.274,-0.471 0.916,-3.636 -1.623,-7.28 -4.591,-9.571 -2.969,-2.291 -6.52,-3.87 -9.041,-6.645 -1.912,-2.104 -3.406,-4.992 -6.173,-5.649 -3.217,-0.764 -6.09,1.902 -8.835,3.745 -2.152,1.445 -7.877,4.597 -5.282,7.941 0.788,1.015 2.972,1.432 4.07,2.001 C -3.366,-1.932 -1.815,-0.73 0,0" /></g><g
           transform="translate(209.9943,408.6467)"
           id="g442"><path
             id="path444"
             style="fill:#eac3a4;fill-opacity:1;fill-rule:nonzero;stroke:none"
             d="m 0,0 c 0.229,-1.984 0.735,-3.941 1.433,-5.762 2.735,-7.129 4.238,-15.595 10.356,-20.672 3.381,-2.807 8.964,-6.837 13.482,-6.738 6.222,0.136 12.152,-0.71 17.802,-3.473 1.24,-0.606 2.457,-1.292 3.788,-1.661 3.073,-0.854 6.134,0.226 8.604,2.085 2.368,1.782 2.916,4.54 4.692,6.738 0.701,0.867 1.675,1.465 2.474,2.242 2.427,2.358 2.497,6.672 2.573,9.845 0.026,1.119 -0.018,2.286 -0.548,3.271 -1.563,2.898 -7.37,1.977 -9.551,5.334 -1.982,3.054 -0.505,7.06 -0.522,10.701 -0.025,3.066 -1.193,5.99 -3.004,8.435 -0.921,1.242 -2.003,2.364 -3.195,3.349 -1.426,1.18 -2.263,1.625 -4.092,1.695 -0.379,0.015 -0.764,0.03 -1.124,0.151 -0.351,0.118 -0.662,0.33 -0.967,0.54 -1.82,1.248 -3.25,2.376 -5.409,2.888 -2.162,0.513 -4.357,0.879 -6.556,1.198 -6.888,0.998 -13.214,2.85 -19.245,-1.314 C 7.778,16.633 4.569,14.253 2.365,11.03 0.145,7.782 -0.444,3.84 0,0" /></g><g
           transform="translate(258.3561,406.9177)"
           id="g446"><path
             id="path448"
             style="fill:#e08a36;fill-opacity:1;fill-rule:nonzero;stroke:none"
             d="m 0,0 c 0.154,-3.008 0.556,-6.273 2.677,-8.412 1.82,-1.836 4.775,-2.437 7.168,-1.459 0.235,0.097 0.458,0.219 0.677,0.343 -1.501,0.489 -2.92,1.146 -3.779,2.466 C 4.761,-4.008 6.238,-0.002 6.222,3.639 6.201,8.093 3.761,12.198 0.351,15.141 -0.135,10.111 -0.257,5.046 0,0" /></g><g
           transform="translate(220.737,410.1047)"
           id="g450"><path
             id="path452"
             style="fill:#e08a36;fill-opacity:1;fill-rule:nonzero;stroke:none"
             d="m 0,0 c 1.214,-2.335 1.854,-4.931 3.014,-7.294 4.26,-8.675 16.15,-12.577 24.722,-8.115 2.641,1.375 5.029,3.554 5.865,6.411 0.51,1.745 0.408,3.621 0.019,5.397 -0.75,3.422 -2.514,6.519 -3.999,9.692 -1.486,3.173 -2.732,6.626 -2.337,10.107 0.036,0.319 0.095,0.636 0.166,0.952 -2.603,0.704 -5.29,1.171 -7.957,1.558 C 12.605,19.706 6.279,21.558 0.248,17.394 -2.518,15.483 -5.278,13.45 -7.399,10.866 -6.95,9.897 -6.401,8.967 -5.804,8.101 -3.917,5.362 -1.534,2.951 0,0" /></g><g
           transform="translate(269.8522,385.5388)"
           id="g454"><path
             id="path456"
             style="fill:none;stroke:#601800;stroke-width:0.5;stroke-linecap:round;stroke-linejoin:round;stroke-miterlimit:10;stroke-dasharray:none;stroke-opacity:1"
             d="M 0,0 C -0.447,-2.927 -2.324,-5.601 -4.925,-7.016" /></g><g
           transform="translate(264.9274,378.5226)"
           id="g458"><path
             id="path460"
             style="fill:none;stroke:#601800;stroke-width:0.5;stroke-linecap:round;stroke-linejoin:round;stroke-miterlimit:10;stroke-dasharray:none;stroke-opacity:1"
             d="M 0,0 C -4.807,-0.405 -9.633,1.107 -12.992,4.568" /></g><g
           transform="translate(253.0573,384.0988)"
           id="g462"><path
             id="path464"
             style="fill:none;stroke:#601800;stroke-width:0.5;stroke-linecap:round;stroke-linejoin:round;stroke-miterlimit:10;stroke-dasharray:none;stroke-opacity:1"
             d="M 0,0 C -0.999,-0.294 -1.863,-1.022 -2.323,-1.957" /></g><g
           transform="translate(264.9645,378.5427)"
           id="g466"><path
             id="path468"
             style="fill:none;stroke:#601800;stroke-width:0.5;stroke-linecap:round;stroke-linejoin:round;stroke-miterlimit:10;stroke-dasharray:none;stroke-opacity:1"
             d="M 0,0 C 0.678,-0.359 1.496,-0.443 2.233,-0.23 3.078,0.014 3.769,0.613 4.417,1.208" /></g><g
           transform="translate(273.8717,390.842)"
           id="g470"><path
             id="path472"
             style="fill:#794a1f;fill-opacity:1;fill-rule:nonzero;stroke:none"
             d="M 0,0 C 0.582,2.032 0.172,3.478 -2.165,3.366 -2.831,3.334 -3.497,3.302 -4.164,3.27 -5.698,3.196 -8.511,3.708 -9.231,1.859 c -0.655,-1.681 0.141,-3.794 1.743,-4.625 0.611,-0.317 1.338,-0.484 1.782,-1.01 0.477,-0.564 0.666,-1.693 1.362,-2.054 0.895,-0.464 1.926,0.458 2.401,1.125 C -0.955,-3.315 -0.469,-1.64 0,0" /></g><g
           transform="translate(268.1324,387.5568)"
           id="g474"><path
             id="path476"
             style="fill:none;stroke:#601800;stroke-width:0.5;stroke-linecap:round;stroke-linejoin:round;stroke-miterlimit:10;stroke-dasharray:none;stroke-opacity:1"
             d="M 0,0 C -0.101,0.909 -0.831,1.712 -1.727,1.899" /></g><g
           transform="translate(260.9879,386.7834)"
           id="g478"><path
             id="path480"
             style="fill:#934a00;fill-opacity:1;fill-rule:nonzero;stroke:none"
             d="m 0,0 c -0.002,-0.298 -0.246,-0.539 -0.544,-0.537 -0.299,0.002 -0.54,0.246 -0.538,0.544 0.003,0.299 0.246,0.54 0.545,0.538 C -0.238,0.543 0.002,0.299 0,0" /></g><g
           transform="translate(263.1881,383.1755)"
           id="g482"><path
             id="path484"
             style="fill:#934a00;fill-opacity:1;fill-rule:nonzero;stroke:none"
             d="m 0,0 c -0.003,-0.299 -0.246,-0.539 -0.545,-0.537 -0.299,0.002 -0.539,0.245 -0.537,0.544 0.002,0.299 0.245,0.54 0.544,0.537 C -0.239,0.542 0.002,0.299 0,0" /></g><g
           transform="translate(265.0133,385.652)"
           id="g486"><path
             id="path488"
             style="fill:#934a00;fill-opacity:1;fill-rule:nonzero;stroke:none"
             d="m 0,0 c -0.003,-0.299 -0.246,-0.539 -0.545,-0.537 -0.299,0.002 -0.539,0.246 -0.537,0.544 0.002,0.299 0.245,0.54 0.544,0.538 C -0.239,0.542 0.002,0.299 0,0" /></g><g
           transform="translate(272.235,382.7673)"
           id="g490"><path
             id="path492"
             style="fill:#934a00;fill-opacity:1;fill-rule:nonzero;stroke:none"
             d="m 0,0 c -0.002,-0.298 -0.246,-0.539 -0.545,-0.537 -0.299,0.002 -0.539,0.246 -0.537,0.544 0.002,0.299 0.246,0.54 0.545,0.538 C -0.238,0.543 0.002,0.299 0,0" /></g><g
           transform="translate(249.6281,403.2126)"
           id="g494"><path
             id="path496"
             style="fill:#502315;fill-opacity:1;fill-rule:nonzero;stroke:none"
             d="m 0,0 c -0.012,-1.696 -1.396,-3.063 -3.093,-3.051 -1.697,0.011 -3.062,1.396 -3.051,3.093 0.012,1.696 1.396,3.062 3.093,3.051 C -1.354,3.082 0.012,1.697 0,0" /></g><g
           transform="translate(263.1481,402.0026)"
           id="g498"><path
             id="path500"
             style="fill:#502315;fill-opacity:1;fill-rule:nonzero;stroke:none"
             d="m 0,0 c -0.012,-1.697 -0.588,-3.068 -1.286,-3.063 -0.699,0.004 -1.257,1.384 -1.245,3.08 0.011,1.697 0.588,3.068 1.287,3.064 C -0.546,3.076 0.012,1.696 0,0" /></g><g
           transform="translate(214.8024,429.0388)"
           id="g502"><path
             id="path504"
             style="fill:#ac5f11;fill-opacity:1;fill-rule:nonzero;stroke:none"
             d="m 0,0 c 1.96,3.288 5.332,5.501 8.838,7.036 3.507,1.534 7.237,2.5 10.771,3.97 3.979,1.655 7.664,3.929 11.474,5.944 0.923,0.488 2.065,0.96 2.961,0.421 1.442,-0.867 0.633,-3.09 -0.377,-4.436 C 30.734,9.026 27.302,5.493 23.481,2.447 21.455,0.833 19.136,-0.952 18.864,-3.528 c -0.124,-1.181 0.218,-2.368 0.152,-3.553 -0.168,-3.006 -2.995,-5.321 -5.944,-5.93 C 9.634,-13.72 3.038,-13.1 0.197,-10.654 -2.664,-8.19 -1.682,-2.821 0,0" /></g><g
           transform="translate(240.0216,411.9064)"
           id="g506"><path
             id="path508"
             style="fill:none;stroke:#601800;stroke-width:0.5;stroke-linecap:round;stroke-linejoin:round;stroke-miterlimit:10;stroke-dasharray:none;stroke-opacity:1"
             d="M 0,0 C 1.447,1.332 3.434,2.06 5.398,1.977 7.364,1.895 9.283,1.004 10.613,-0.444" /></g><g
           transform="translate(259.7223,410.6442)"
           id="g510"><path
             id="path512"
             style="fill:none;stroke:#601800;stroke-width:0.5;stroke-linecap:round;stroke-linejoin:round;stroke-miterlimit:10;stroke-dasharray:none;stroke-opacity:1"
             d="M 0,0 C 0.294,0.725 0.883,1.325 1.604,1.631 2.05,1.822 2.688,1.833 2.898,1.396" /></g><g
           transform="translate(260.4879,401.1833)"
           id="g514"><path
             id="path516"
             style="fill:none;stroke:#601800;stroke-width:0.5;stroke-linecap:round;stroke-linejoin:round;stroke-miterlimit:10;stroke-dasharray:none;stroke-opacity:1"
             d="M 0,0 C 0.426,-1.783 2.13,-3.179 3.962,-3.246" /></g><g
           transform="translate(258.2731,375.3459)"
           id="g518"><path
             id="path520"
             style="fill:none;stroke:#601800;stroke-width:0.5;stroke-linecap:round;stroke-linejoin:round;stroke-miterlimit:10;stroke-dasharray:none;stroke-opacity:1"
             d="M 0,0 C 1.872,-1.013 4.115,-1.32 6.191,-0.849" /></g><g
           transform="translate(193.966,323.4074)"
           id="g522"><path
             id="path524"
             style="fill:#eac3a4;fill-opacity:1;fill-rule:nonzero;stroke:none"
             d="m 0,0 c 1.045,-1.244 1.996,-2.594 2.745,-4.169 0.613,-1.289 1.125,-2.654 1.212,-4.078 0.157,-2.575 -1.078,-5.054 -1.122,-7.633 -0.076,-4.493 3.341,-8.168 6.376,-11.482 4.627,-5.049 8.866,-10.453 12.67,-16.147 3.61,-5.404 7.291,-9.428 11.498,-14.299 1.875,-2.17 3.807,-4.387 6.325,-5.759 2.519,-1.372 5.789,-1.74 8.188,-0.168 0.564,0.37 1.078,0.855 1.337,1.478 0.791,1.903 -1.019,3.789 -2.5,5.221 -3.771,3.645 -6.429,8.26 -9.037,12.809 -5.776,10.077 -14.706,21.582 -14.434,33.773 0.101,4.541 1.102,9.012 1.544,13.533 0.892,9.113 0.975,24.566 -5.449,31.809 C 15.388,39.357 8.791,41.017 2.962,39.708 -3.287,38.304 -13.05,32.563 -13.177,25.346 -13.282,19.343 -10.573,12.708 -7.122,7.867 -5.029,4.93 -2.287,2.72 0,0" /></g><g
           transform="translate(239.5831,258.7214)"
           id="g526"><path
             id="path528"
             style="fill:none;stroke:#601800;stroke-width:0.5;stroke-linecap:round;stroke-linejoin:round;stroke-miterlimit:10;stroke-dasharray:none;stroke-opacity:1"
             d="M 0,0 C -0.275,1.424 -0.987,2.76 -2.016,3.783" /></g><g
           transform="translate(240.3712,263.8234)"
           id="g530"><path
             id="path532"
             style="fill:none;stroke:#601800;stroke-width:0.5;stroke-linecap:round;stroke-linejoin:round;stroke-miterlimit:10;stroke-dasharray:none;stroke-opacity:1"
             d="M 0,0 C 1.062,-0.898 1.766,-2.208 1.931,-3.589" /></g><g
           transform="translate(277.7604,328.6408)"
           id="g534"><path
             id="path536"
             style="fill:none;stroke:#601800;stroke-width:0.5;stroke-linecap:round;stroke-linejoin:round;stroke-miterlimit:10;stroke-dasharray:none;stroke-opacity:1"
             d="M 0,0 C 1.416,-0.042 2.744,-1.094 3.11,-2.463" /></g><g
           transform="translate(34.4435,265.0319)"
           id="g538"><path
             id="path540"
             style="fill:none;stroke:#601800;stroke-width:0.5;stroke-linecap:round;stroke-linejoin:round;stroke-miterlimit:10;stroke-dasharray:none;stroke-opacity:1"
             d="M 0,0 C 0.879,1.013 1.465,2.277 1.67,3.603" /></g><g
           transform="translate(37.1725,262.9748)"
           id="g542"><path
             id="path544"
             style="fill:none;stroke:#601800;stroke-width:0.5;stroke-linecap:round;stroke-linejoin:round;stroke-miterlimit:10;stroke-dasharray:none;stroke-opacity:1"
             d="M 0,0 C 1.429,0.864 2.414,2.424 2.581,4.085" /></g><g
           transform="translate(72.2052,308.0812)"
           id="g546"><path
             id="path548"
             style="fill:none;stroke:#601800;stroke-width:0.5;stroke-linecap:round;stroke-linejoin:round;stroke-miterlimit:10;stroke-dasharray:none;stroke-opacity:1"
             d="M 0,0 C -0.526,-2.85 1.134,-5.955 3.796,-7.1" /></g><g
           transform="translate(211.4288,307.6447)"
           id="g550"><path
             id="path552"
             style="fill:none;stroke:#601800;stroke-width:0.5;stroke-linecap:round;stroke-linejoin:round;stroke-miterlimit:10;stroke-dasharray:none;stroke-opacity:1"
             d="M 0,0 C 0.429,-0.747 1.273,-1.237 2.135,-1.238" /></g><g
           transform="translate(237.1481,266.8381)"
           id="g554"><path
             id="path556"
             style="fill:none;stroke:#601800;stroke-width:0.5;stroke-linecap:round;stroke-linejoin:round;stroke-miterlimit:10;stroke-dasharray:none;stroke-opacity:1"
             d="M 0,0 C -0.468,-0.871 -1.822,-1.082 -2.533,-0.394" /></g><g
           transform="translate(272.024,331.238)"
           id="g558"><path
             id="path560"
             style="fill:none;stroke:#601800;stroke-width:0.5;stroke-linecap:round;stroke-linejoin:round;stroke-miterlimit:10;stroke-dasharray:none;stroke-opacity:1"
             d="M 0,0 C -0.846,-0.096 -1.663,-0.432 -2.332,-0.958" /></g><g
           transform="translate(202.858,407.1945)"
           id="g562"><path
             id="path564"
             style="fill:#d24a2c;fill-opacity:1;fill-rule:nonzero;stroke:none"
             d="m 0,0 c 1.088,-13.787 7.008,-27.606 17.927,-36.092 1.271,-0.989 2.709,-1.937 4.319,-1.964 2.487,-0.041 4.418,2.06 5.992,3.986 0.176,0.216 0.359,0.446 0.399,0.721 0.084,0.573 -0.457,1.024 -0.935,1.352 -6.694,4.596 -12.806,10.234 -16.996,17.19 C 7.015,-8.678 4.897,-1.458 5.42,5.726 5.613,8.374 5.973,10.247 3.088,8.136 0.389,6.16 -0.25,3.166 0,0" /></g><g
           transform="translate(228.1027,364.8703)"
           id="g566"><path
             id="path568"
             style="fill:#f9d672;fill-opacity:1;fill-rule:nonzero;stroke:none"
             d="m 0,0 c 0.74,-3.206 0.003,-6.114 -1.645,-6.494 -1.647,-0.381 -3.584,1.911 -4.323,5.117 -0.74,3.206 -0.004,6.114 1.644,6.494 C -2.676,5.498 -0.74,3.207 0,0" /></g><g
           transform="translate(64.1564,358.1686)"
           id="g570"><path
             id="path572"
             style="fill:#eac3a4;fill-opacity:1;fill-rule:nonzero;stroke:none"
             d="m 0,0 c -8.002,-8.057 -16.012,-17.011 -26.884,-20.288 -0.948,-0.285 -1.96,-0.553 -2.647,-1.266 -0.686,-0.714 -0.834,-2.047 -0.021,-2.611 0.523,-0.361 1.222,-0.284 1.849,-0.177 19.498,3.32 34.024,19.842 52.507,26.884 2.318,0.883 4.768,1.657 6.604,3.324 1.837,1.668 2.854,4.562 1.561,6.68 C 25.701,24.446 5.548,5.586 0,0" /></g><g
           transform="translate(59.2433,346.9929)"
           id="g574"><path
             id="path576"
             style="fill:#e08a36;fill-opacity:1;fill-rule:nonzero;stroke:none"
             d="M 0,0 C 0.825,0.693 1.76,1.278 2.417,2.132 4.02,4.213 3.502,7.079 3.512,9.757 -4.033,2.093 -11.733,-6.026 -21.971,-9.112 c -0.947,-0.285 -1.96,-0.554 -2.647,-1.266 -0.686,-0.714 -0.834,-2.047 -0.021,-2.611 0.523,-0.362 1.222,-0.284 1.849,-0.178 6.722,1.145 12.852,3.859 18.759,7.213 0.9,2.29 2.148,4.371 4.031,5.954" /></g><g
           transform="translate(117.9025,366.0012)"
           id="g578"><path
             id="path580"
             style="fill:#e08a36;fill-opacity:1;fill-rule:nonzero;stroke:none"
             d="m 0,0 c 4.142,-0.748 7.095,-4.302 10.636,-6.576 2.816,-1.809 6.128,-2.838 9.474,-2.942 1.175,-0.036 2.404,0.054 3.419,0.645 2.177,1.269 2.596,4.286 4.397,6.048 3.12,3.054 9.578,1.725 11.346,5.717 0.546,1.232 0.452,2.728 1.24,3.82 0.788,1.094 2.214,1.461 3.463,1.969 3.3,1.34 5.951,4.192 7.049,7.581 0.933,2.882 0.772,6.008 1.501,8.947 0.165,0.668 0.385,1.321 0.643,1.958 C 47.041,24.143 40.793,21.391 34.406,19.009 32.354,18.244 30.363,17.508 28.387,16.829 23.397,15.115 18.502,13.764 12.958,13.217 5.174,12.45 -2.659,12.407 -10.456,11.824 -14.779,11.501 -19.2,10.961 -23.366,9.782 -18.501,7.025 -14.823,0.91 -9.12,-0.03 -6.111,-0.526 -3.001,0.542 0,0" /></g><g
           transform="translate(87.4171,361.447)"
           id="g582"><path
             id="path584"
             style="fill:#e08a36;fill-opacity:1;fill-rule:nonzero;stroke:none"
             d="m 0,0 c -1,-2.092 -1.264,-4.449 -1.515,-6.754 -0.228,-2.106 -0.429,-4.364 0.587,-6.223 1.559,-2.854 5.541,-3.616 8.594,-2.495 3.053,1.12 5.355,3.636 7.418,6.15 1.115,1.358 2.247,2.865 2.336,4.62 0.087,1.702 -0.826,3.277 -1.709,4.736 -0.743,1.228 -1.486,2.456 -2.229,3.684 -0.4,0.661 -0.814,1.338 -1.43,1.803 C 8.745,8.018 1.442,3.018 0,0" /></g><g
           transform="translate(244.6613,441.4645)"
           id="g586"><path
             id="path588"
             style="fill:none;stroke:#601800;stroke-width:0.5;stroke-linecap:round;stroke-linejoin:round;stroke-miterlimit:10;stroke-dasharray:none;stroke-opacity:1"
             d="m 0,0 c -1.83,-2.562 -4.073,-4.828 -6.616,-6.684 -2.225,-1.624 -4.697,-2.952 -6.626,-4.918 -1.93,-1.967 -3.271,-4.824 -2.515,-7.474" /></g><g
           transform="translate(276.36,435.4079)"
           id="g590"><path
             id="path592"
             style="fill:none;stroke:#601800;stroke-width:0.5;stroke-linecap:round;stroke-linejoin:round;stroke-miterlimit:10;stroke-dasharray:none;stroke-opacity:1"
             d="m 0,0 c -0.767,-1.375 -1.746,-2.636 -2.928,-3.677 -2.208,-1.947 -5.009,-3.049 -7.656,-4.339 -2.645,-1.291 -5.301,-2.915 -6.755,-5.474" /></g><g
           transform="translate(72.8151,351.652)"
           id="g594"><path
             id="path596"
             style="fill:none;stroke:#601800;stroke-width:0.5;stroke-linecap:round;stroke-linejoin:round;stroke-miterlimit:10;stroke-dasharray:none;stroke-opacity:1"
             d="M 0,0 C 0.463,3.531 1.707,6.957 3.616,9.962" /></g><g
           transform="translate(97.3117,325.7487)"
           id="g598"><path
             id="path600"
             style="fill:none;stroke:#601800;stroke-width:0.5;stroke-linecap:round;stroke-linejoin:round;stroke-miterlimit:10;stroke-dasharray:none;stroke-opacity:1"
             d="M 0,0 C 3.287,4.03 6.574,8.061 9.86,12.091" /></g><g
           transform="translate(188.6173,328.7809)"
           id="g602"><path
             id="path604"
             style="fill:none;stroke:#601800;stroke-width:0.5;stroke-linecap:round;stroke-linejoin:round;stroke-miterlimit:10;stroke-dasharray:none;stroke-opacity:1"
             d="M 0,0 C -2.425,1.43 -4.64,3.214 -6.553,5.279" /></g><g
           transform="translate(218.9245,343.4831)"
           id="g606"><path
             id="path608"
             style="fill:none;stroke:#601800;stroke-width:0.5;stroke-linecap:round;stroke-linejoin:round;stroke-miterlimit:10;stroke-dasharray:none;stroke-opacity:1"
             d="M 0,0 C -0.013,1.827 -0.271,3.651 -0.764,5.41" /></g><g
           transform="translate(311.4469,210.3698)"
           id="g610"><path
             id="path612"
             style="fill:#907235;fill-opacity:1;fill-rule:nonzero;stroke:none"
             d="m 0,0 c 4.622,0.089 8.575,-3.416 11.067,-7.31 2.492,-3.892 4.046,-8.357 6.806,-12.065 1.815,-2.44 4.131,-4.506 6.762,-6.032 -5.255,-0.225 -10.544,0.387 -15.608,1.806 -4.236,1.188 -8.391,2.987 -11.652,5.94 C -8.456,-12.381 -11.56,-0.223 0,0" /></g><g
           transform="translate(309.7086,205.9147)"
           id="g614"><path
             id="path616"
             style="fill:none;stroke:#2a0f10;stroke-width:0.5;stroke-linecap:round;stroke-linejoin:round;stroke-miterlimit:10;stroke-dasharray:none;stroke-opacity:1"
             d="M 0,0 C 4.212,-0.966 7.947,-3.837 9.966,-7.658" /></g><g
           transform="translate(451.943,167.0534)"
           id="g618"><path
             id="path620"
             style="fill:#f79e5b;fill-opacity:1;fill-rule:nonzero;stroke:none"
             d="m 0,0 c 6.04,-8.665 9.061,-19.004 12.855,-28.86 1.664,-4.321 3.613,-8.746 7.161,-11.721 1.418,-1.189 4.245,-2.663 4.775,-4.579 0.585,-2.11 -0.827,-2.159 -2.594,-1.447 -9.198,3.709 -14.482,13.225 -18.703,22.2 -4.221,8.974 -8.614,18.688 -17.166,23.711 -3.625,2.129 -7.883,3.322 -10.885,6.265 -1.756,1.722 -4.054,6.251 -1.605,8.362 2.058,1.771 7.096,0.091 9.312,-0.648 C -9.958,10.983 -4.111,5.896 0,0" /></g><g
           transform="translate(415.276,169.1725)"
           id="g622"><path
             id="path624"
             style="fill:#e59158;fill-opacity:1;fill-rule:nonzero;stroke:none"
             d="M 0,0 C 4.038,-9.115 3.766,-19.295 2.533,-28.983 1.277,-38.864 -1.883,-46.492 2.278,-56.3 4.141,-60.688 6.997,-64.771 7.621,-69.497 8.092,-73.06 7.239,-76.649 6.393,-80.143 5.116,-85.406 3.84,-90.671 2.564,-95.935 c -0.645,-2.663 -0.292,-5.26 -1.351,-7.918 -0.262,-0.655 -0.571,-1.305 -1.04,-1.833 -0.614,-0.691 -1.462,-1.128 -2.314,-1.49 -2.387,-1.012 -4.976,-1.547 -7.57,-1.56 -0.882,-0.005 -1.789,0.055 -2.593,0.419 -0.803,0.364 -1.494,1.086 -1.603,1.962 -0.123,0.985 0.489,1.914 1.189,2.618 1.759,1.766 4.252,2.805 5.598,4.904 1.571,2.451 1.645,6.23 1.865,9.053 0.817,10.508 -1.732,18.678 -9.696,26.014 -3.816,3.514 -8.133,6.555 -11.282,10.676 -4.723,6.18 -7.891,15.399 -9.619,22.91 -1.936,8.418 -3.042,17.399 -1.505,25.974 1.072,5.986 3.862,11.825 8.571,15.673 4.399,3.595 12.485,6.082 17.907,3.264 C -5.95,12.17 -2.121,4.788 0,0" /></g><g
           transform="translate(286.9176,127.8395)"
           id="g626"><path
             id="path628"
             style="fill:#e59158;fill-opacity:1;fill-rule:nonzero;stroke:none"
             d="m 0,0 c 1.579,-6.046 3.539,-11.963 6.023,-17.551 5.355,-12.045 8.831,-24.542 7.04,-37.818 -0.218,-1.621 -0.457,-3.298 -1.324,-4.686 -1.852,-2.965 -6.281,-4.184 -6.909,-7.624 -0.109,-0.6 -0.073,-1.255 0.255,-1.769 0.589,-0.924 1.849,-1.085 2.943,-1.138 2.826,-0.137 5.714,-0.158 8.411,0.695 8.921,2.825 7.157,14.635 8.214,22.083 1.095,7.715 1.677,15.537 1.024,23.319 -0.374,4.467 -1.151,8.961 -0.548,13.402 0.946,6.97 5.345,13.187 4.858,20.261 C 29.55,15.529 27.14,22.256 22.077,26.368 16.671,30.759 -6.275,36.613 -4.621,24.396 -3.53,16.344 -2.104,8.057 0,0" /></g><g
           transform="translate(283.7516,146.7946)"
           id="g630"><path
             id="path632"
             style="fill:#f79e5b;fill-opacity:1;fill-rule:nonzero;stroke:none"
             d="m 0,0 c 0.886,-2.51 1.818,-4.998 2.865,-7.434 2.018,-4.688 4.232,-8.712 7.92,-12.219 3.642,-3.463 7.689,-6.561 12.257,-8.701 0.092,-0.042 0.183,-0.084 0.274,-0.126 4.83,-2.211 10.118,-3.294 15.412,-3.727 36.332,-2.964 69.063,23.58 105.439,25.941 4.966,0.323 10.471,0.382 14.113,3.774 3.811,3.547 4.119,9.459 3.422,14.619 -0.577,4.272 -1.691,8.55 -3.99,12.197 -4.068,6.456 -11.355,10.196 -18.674,12.357 -17.837,5.266 -36.887,2.835 -55.448,1.673 C 75.525,37.85 67.372,37.599 59.42,39.028 51.793,40.399 44.5,43.296 37.655,46.931 27.373,52.392 17.872,59.689 11.188,69.223 10.423,70.313 9.525,71.54 8.2,71.684 7.549,71.754 6.902,71.539 6.286,71.316 -4.546,67.403 -14.016,59.836 -20.356,50.233 -24.491,43.971 -22.207,42.128 -18.018,36.846 -14.028,31.816 -10.6,26.32 -7.767,20.563 -4.548,14.025 -2.449,6.935 0,0" /></g><g
           transform="translate(242.3751,231.1032)"
           id="g634"><path
             id="path636"
             style="fill:#d25d2c;fill-opacity:1;fill-rule:nonzero;stroke:none"
             d="m 0,0 c -1.139,-1.877 -2.278,-3.755 -3.417,-5.632 -1.496,-2.465 -2.991,-4.929 -4.486,-7.393 -0.691,-1.138 -1.401,-2.531 -0.827,-3.733 0.479,-1.006 1.673,-1.432 2.771,-1.624 3.44,-0.597 7.031,0.194 10.138,1.788 3.107,1.595 5.767,3.953 8.099,6.553 1.041,1.16 2.041,2.402 2.577,3.865 1.284,3.502 -1.406,6.89 -4.319,8.551 C 6.083,4.915 2.639,4.349 0,0" /></g><g
           transform="translate(271.1959,236.6491)"
           id="g638"><path
             id="path640"
             style="fill:#f79e5b;fill-opacity:1;fill-rule:nonzero;stroke:none"
             d="m 0,0 c -2.654,-0.213 -5.263,-0.845 -7.918,-1.051 -2.929,-0.227 -5.915,0.061 -8.774,-0.609 -4.413,-1.035 -8.183,-4.474 -9.618,-8.773 -0.625,-1.874 -0.855,-3.929 -1.974,-5.557 -1.243,-1.811 -3.361,-2.774 -5.374,-3.652 -2.071,-0.903 -4.141,-1.806 -6.212,-2.71 -0.687,-0.299 -1.402,-0.62 -1.872,-1.203 -0.509,-0.631 -0.655,-1.474 -0.719,-2.282 -0.408,-5.145 2.022,-10.426 6.194,-13.463 0.415,-0.303 0.857,-0.595 1.145,-1.02 0.386,-0.571 0.441,-1.292 0.589,-1.965 0.626,-2.85 3.087,-5.018 5.809,-6.068 2.722,-1.049 5.703,-1.164 8.619,-1.224 9.902,-0.205 20.394,-1.513 29.255,3.634 4.922,2.858 9.1,7.015 11.945,11.949 2.843,4.932 5.4,10.627 4.878,16.401 -0.514,5.674 -3.755,10.961 -8.375,14.241 C 12.854,0.018 5.639,0.451 0,0" /></g><g
           transform="translate(238.7936,206.5456)"
           id="g642"><path
             id="path644"
             style="fill:#ac3f11;fill-opacity:1;fill-rule:nonzero;stroke:none"
             d="m 0,0 c 0.201,-0.223 0.183,-0.565 -0.04,-0.766 -0.222,-0.201 -0.565,-0.183 -0.766,0.039 -0.2,0.223 -0.183,0.566 0.04,0.767 C -0.543,0.24 -0.201,0.223 0,0" /></g><g
           transform="translate(242.2003,205.8942)"
           id="g646"><path
             id="path648"
             style="fill:#ac3f11;fill-opacity:1;fill-rule:nonzero;stroke:none"
             d="m 0,0 c 0.201,-0.223 0.183,-0.565 -0.04,-0.767 -0.222,-0.2 -0.565,-0.182 -0.766,0.04 -0.2,0.223 -0.183,0.566 0.04,0.766 C -0.543,0.24 -0.201,0.223 0,0" /></g><g
           transform="translate(242.5392,208.4323)"
           id="g650"><path
             id="path652"
             style="fill:#ac3f11;fill-opacity:1;fill-rule:nonzero;stroke:none"
             d="m 0,0 c 0.201,-0.223 0.183,-0.565 -0.04,-0.767 -0.222,-0.2 -0.565,-0.182 -0.766,0.04 -0.201,0.223 -0.183,0.566 0.039,0.766 C -0.544,0.24 -0.201,0.223 0,0" /></g><g
           transform="translate(233.6061,205.7536)"
           id="g654"><path
             id="path656"
             style="fill:none;stroke:#790d13;stroke-width:0.5;stroke-linecap:round;stroke-linejoin:round;stroke-miterlimit:10;stroke-dasharray:none;stroke-opacity:1"
             d="m 0,0 c 0.382,-1.648 0.772,-3.316 1.55,-4.818 0.779,-1.503 2,-2.846 3.594,-3.414" /></g><g
           transform="translate(237.8429,197.8776)"
           id="g658"><path
             id="path660"
             style="fill:none;stroke:#790d13;stroke-width:0.5;stroke-linecap:round;stroke-linejoin:round;stroke-miterlimit:10;stroke-dasharray:none;stroke-opacity:1"
             d="m 0,0 c 2.443,-0.417 4.886,-0.833 7.329,-1.25 3.213,-0.548 6.536,-1.093 9.7,-0.309 2.972,0.738 5.629,2.674 7.239,5.279" /></g><g
           transform="translate(261.0172,201.738)"
           id="g662"><path
             id="path664"
             style="fill:none;stroke:#790d13;stroke-width:0.5;stroke-linecap:round;stroke-linejoin:round;stroke-miterlimit:10;stroke-dasharray:none;stroke-opacity:1"
             d="M 0,0 C 1.298,0.191 2.681,-0.444 3.381,-1.554" /></g><g
           transform="translate(238.4337,197.6432)"
           id="g666"><path
             id="path668"
             style="fill:none;stroke:#790d13;stroke-width:0.5;stroke-linecap:round;stroke-linejoin:round;stroke-miterlimit:10;stroke-dasharray:none;stroke-opacity:1"
             d="M 0,0 C -0.629,-0.886 -1.957,-1.183 -2.903,-0.649" /></g><g
           transform="translate(232.0407,213.278)"
           id="g670"><path
             id="path672"
             style="fill:#86452b;fill-opacity:1;fill-rule:nonzero;stroke:none"
             d="m 0,0 c -0.745,-0.098 -1.558,-0.257 -2.03,-0.842 -0.268,-0.332 -0.388,-0.762 -0.423,-1.188 -0.151,-1.821 1.091,-3.429 2.264,-4.83 0.382,-0.457 0.829,-0.95 1.423,-1.001 0.776,-0.069 1.394,0.648 1.715,1.358 0.322,0.71 0.519,1.519 1.098,2.04 0.807,0.728 2.161,0.709 2.801,1.587 0.203,0.279 0.306,0.624 0.318,0.969 C 7.273,1.39 1.82,0.237 0,0" /></g><g
           transform="translate(235.6871,208.611)"
           id="g674"><path
             id="path676"
             style="fill:none;stroke:#790d13;stroke-width:0.5;stroke-linecap:round;stroke-linejoin:round;stroke-miterlimit:10;stroke-dasharray:none;stroke-opacity:1"
             d="M 0,0 C 0.264,0.793 0.751,1.511 1.392,2.048" /></g><g
           transform="translate(230.6066,208.4899)"
           id="g678"><path
             id="path680"
             style="fill:none;stroke:#790d13;stroke-width:0.5;stroke-linecap:round;stroke-linejoin:round;stroke-miterlimit:10;stroke-dasharray:none;stroke-opacity:1"
             d="M 0,0 C -0.159,0.483 -0.245,0.991 -0.252,1.501" /></g><g
           transform="translate(264.0983,220.652)"
           id="g682"><path
             id="path684"
             style="fill:#790d13;fill-opacity:1;fill-rule:nonzero;stroke:none"
             d="m 0,0 c 0.03,-1.701 -1.324,-3.105 -3.026,-3.136 -1.702,-0.031 -3.106,1.324 -3.136,3.026 -0.03,1.701 1.324,3.105 3.025,3.136 C -1.436,3.057 -0.031,1.702 0,0" /></g><g
           transform="translate(247.0626,220.6647)"
           id="g686"><path
             id="path688"
             style="fill:#790d13;fill-opacity:1;fill-rule:nonzero;stroke:none"
             d="m 0,0 c -0.416,-1.498 -1.283,-2.585 -1.936,-2.427 -0.654,0.158 -0.846,1.5 -0.431,2.998 0.416,1.498 1.283,2.585 1.937,2.427 C 0.223,2.841 0.416,1.498 0,0" /></g><g
           transform="translate(278.6989,237.9626)"
           id="g690"><path
             id="path692"
             style="fill:#d25d2c;fill-opacity:1;fill-rule:nonzero;stroke:none"
             d="m 0,0 c -0.331,0.069 -0.667,0.124 -1.009,0.159 -0.463,0.048 -0.934,0.079 -1.39,-0.011 -1.684,-0.333 -2.647,-2.278 -2.473,-3.985 0.174,-1.707 1.18,-3.202 2.196,-4.585 2.952,-4.015 5.287,-9.167 6.4,-14.026 0.216,-0.948 0.498,-2.044 1.386,-2.437 0.844,-0.372 1.807,0.09 2.589,0.578 2.79,1.74 5.277,3.964 7.315,6.544 1.673,2.119 3.067,4.535 3.552,7.193 0.486,2.656 -0.037,5.583 -1.81,7.62 -0.367,0.422 -0.794,0.808 -1.311,1.026 C 12.846,-0.831 10.24,-2.895 7.626,-2.513 5.034,-2.134 2.681,-0.566 0,0" /></g><g
           transform="translate(259.0426,227.5378)"
           id="g694"><path
             id="path696"
             style="fill:none;stroke:#790d13;stroke-width:0.5;stroke-linecap:round;stroke-linejoin:round;stroke-miterlimit:10;stroke-dasharray:none;stroke-opacity:1"
             d="m 0,0 c 1.434,0.784 3.211,0.721 4.761,0.201 1.549,-0.519 2.922,-1.45 4.272,-2.37" /></g><g
           transform="translate(247.0241,226.0651)"
           id="g698"><path
             id="path700"
             style="fill:none;stroke:#790d13;stroke-width:0.5;stroke-linecap:round;stroke-linejoin:round;stroke-miterlimit:10;stroke-dasharray:none;stroke-opacity:1"
             d="m 0,0 c 0.081,0.409 -0.077,0.856 -0.396,1.124 -0.32,0.268 -0.789,0.344 -1.177,0.192" /></g><g
           transform="translate(300.0934,117.239)"
           id="g702"><path
             id="path704"
             style="fill:#f79e5b;fill-opacity:1;fill-rule:nonzero;stroke:none"
             d="m 0,0 c 0.854,-2.021 1.771,-4.015 2.717,-5.98 7.918,-16.462 14.764,-30.278 12.253,-48.892 -0.219,-1.621 -0.457,-3.299 -1.324,-4.686 -1.853,-2.965 -6.282,-4.185 -6.91,-7.625 -0.109,-0.6 -0.073,-1.255 0.255,-1.769 0.589,-0.924 1.849,-1.085 2.943,-1.138 2.826,-0.137 5.714,-0.158 8.412,0.695 8.921,2.825 7.156,14.636 8.213,22.083 1.094,7.715 1.676,15.537 1.024,23.32 -0.374,4.466 -1.15,8.96 -0.548,13.401 0.946,6.97 5.345,13.187 4.859,20.261 -0.438,6.356 -2.848,13.083 -7.91,17.194 C 17.649,32.01 8.691,32.15 0.565,31.374 -3.194,31.015 -4.298,30.603 -5.1,27.092 -5.904,23.567 -5.348,19.329 -4.786,15.81 -3.918,10.356 -2.153,5.089 0,0" /></g><g
           transform="translate(445.2653,163.9645)"
           id="g706"><path
             id="path708"
             style="fill:#f79e5b;fill-opacity:1;fill-rule:nonzero;stroke:none"
             d="M 0,0 C 4.038,-9.115 3.766,-19.295 2.533,-28.983 1.276,-38.864 -1.884,-46.492 2.278,-56.3 4.141,-60.688 6.997,-64.771 7.621,-69.497 8.092,-73.06 7.239,-76.649 6.393,-80.143 5.116,-85.406 3.84,-90.671 2.563,-95.935 c 0,-4.882 -0.493,-10.255 -5.885,-11.773 -2.307,-0.648 -4.756,-0.508 -7.141,-0.269 -1.242,0.124 -2.658,0.384 -3.292,1.459 -0.572,0.972 -0.236,2.259 0.45,3.154 0.687,0.894 1.662,1.51 2.544,2.215 5.967,4.763 6.314,13.004 5.31,20.008 -0.982,6.84 -4.451,12.725 -9.501,17.375 -3.815,3.514 -8.132,6.555 -11.281,10.676 -4.723,6.18 -7.892,15.399 -9.62,22.91 -1.935,8.418 -3.042,17.399 -1.504,25.974 1.072,5.986 3.862,11.825 8.571,15.673 4.399,3.595 12.485,6.082 17.907,3.264 C -5.95,12.17 -2.122,4.788 0,0" /></g><g
           transform="translate(271.4987,187.9069)"
           id="g710"><path
             id="path712"
             style="fill:none;stroke:#790d13;stroke-width:0.5;stroke-linecap:round;stroke-linejoin:round;stroke-miterlimit:10;stroke-dasharray:none;stroke-opacity:1"
             d="m 0,0 5.757,2.153 c 1.558,0.583 3.122,1.168 4.593,1.946 3.666,1.94 6.679,5.09 8.453,8.84" /></g><g
           transform="translate(288.3287,181.2018)"
           id="g714"><path
             id="path716"
             style="fill:#907235;fill-opacity:1;fill-rule:nonzero;stroke:none"
             d="m 0,0 c -4.071,-5.548 -9.054,-10.66 -15.338,-13.464 -0.036,-2.329 2.96,-3.519 3.749,-5.712 0.291,-0.809 0.254,-1.693 0.341,-2.549 0.188,-1.856 0.963,-3.595 1.736,-5.294 3.167,-6.954 6.48,-13.841 9.936,-20.656 0.574,-1.134 1.547,-2.46 2.779,-2.151 0.532,0.133 0.937,0.556 1.286,0.978 1.163,1.409 2.058,3.016 2.907,4.632 10.328,19.651 14.956,42.254 13.184,64.382 -0.087,1.079 -0.21,2.218 -0.854,3.087 -0.672,0.905 -1.799,1.144 -2.805,0.732 -0.635,1.866 -1.844,6.178 -3.917,4.048 C 11.487,26.477 11.037,21.334 10.291,19.281 7.798,12.41 4.325,5.893 0,0" /></g><g
           transform="translate(305.0817,199.7243)"
           id="g718"><path
             id="path720"
             style="fill:none;stroke:#2a0f10;stroke-width:0.5;stroke-linecap:round;stroke-linejoin:round;stroke-miterlimit:10;stroke-dasharray:none;stroke-opacity:1"
             d="M 0,0 C -2.013,-16.316 -4.335,-33.439 -14.114,-46.655" /></g><g
           transform="translate(300.8092,192.1266)"
           id="g722"><path
             id="path724"
             style="fill:none;stroke:#2a0f10;stroke-width:0.5;stroke-linecap:round;stroke-linejoin:round;stroke-miterlimit:10;stroke-dasharray:none;stroke-opacity:1"
             d="m 0,0 c -1.812,-6.113 -4.658,-11.86 -7.491,-17.573 -2.27,-4.577 -4.64,-9.286 -8.525,-12.604" /></g><g
           transform="translate(297.3453,124.6813)"
           id="g726"><path
             id="path728"
             style="fill:none;stroke:#790d13;stroke-width:0.5;stroke-linecap:round;stroke-linejoin:round;stroke-miterlimit:10;stroke-dasharray:none;stroke-opacity:1"
             d="M 0,0 C -0.559,1.994 -1.117,3.989 -1.676,5.983" /></g><g
           transform="translate(329.8326,114.5798)"
           id="g730"><path
             id="path732"
             style="fill:none;stroke:#790d13;stroke-width:0.5;stroke-linecap:round;stroke-linejoin:round;stroke-miterlimit:10;stroke-dasharray:none;stroke-opacity:1"
             d="M 0,0 C 2.413,4.404 4.516,8.979 6.286,13.678" /></g><g
           transform="translate(408.9625,136.6911)"
           id="g734"><path
             id="path736"
             style="fill:none;stroke:#790d13;stroke-width:0.5;stroke-linecap:round;stroke-linejoin:round;stroke-miterlimit:10;stroke-dasharray:none;stroke-opacity:1"
             d="M 0,0 C -0.249,2.755 -0.498,5.511 -0.747,8.266" /></g><g
           transform="translate(402.4196,61.2067)"
           id="g738"><path
             id="path740"
             style="fill:none;stroke:#790d13;stroke-width:0.5;stroke-linecap:round;stroke-linejoin:round;stroke-miterlimit:10;stroke-dasharray:none;stroke-opacity:1"
             d="M 0,0 C -0.021,1.315 0.573,2.626 1.574,3.479" /></g><g
           transform="translate(406.2692,60.4255)"
           id="g742"><path
             id="path744"
             style="fill:none;stroke:#790d13;stroke-width:0.5;stroke-linecap:round;stroke-linejoin:round;stroke-miterlimit:10;stroke-dasharray:none;stroke-opacity:1"
             d="M 0,0 C -0.127,1.155 0.338,2.36 1.208,3.132" /></g><g
           transform="translate(432.4762,56.4958)"
           id="g746"><path
             id="path748"
             style="fill:none;stroke:#790d13;stroke-width:0.5;stroke-linecap:round;stroke-linejoin:round;stroke-miterlimit:10;stroke-dasharray:none;stroke-opacity:1"
             d="M 0,0 C 0.068,1.3 0.657,2.565 1.608,3.455" /></g><g
           transform="translate(437.234,55.8503)"
           id="g750"><path
             id="path752"
             style="fill:none;stroke:#790d13;stroke-width:0.5;stroke-linecap:round;stroke-linejoin:round;stroke-miterlimit:10;stroke-dasharray:none;stroke-opacity:1"
             d="M 0,0 C 0.454,1.301 1.021,2.562 1.693,3.765" /></g><g
           transform="translate(434.0865,101.3112)"
           id="g754"><path
             id="path756"
             style="fill:none;stroke:#790d13;stroke-width:0.5;stroke-linecap:round;stroke-linejoin:round;stroke-miterlimit:10;stroke-dasharray:none;stroke-opacity:1"
             d="M 0,0 C 0.961,1.314 1.499,2.935 1.514,4.563" /></g><g
           transform="translate(403.0729,107.9401)"
           id="g758"><path
             id="path760"
             style="fill:none;stroke:#790d13;stroke-width:0.5;stroke-linecap:round;stroke-linejoin:round;stroke-miterlimit:10;stroke-dasharray:none;stroke-opacity:1"
             d="M 0,0 C 0.926,1.246 1.702,2.603 2.308,4.031" /></g><g
           transform="translate(308.7653,47.4431)"
           id="g762"><path
             id="path764"
             style="fill:none;stroke:#790d13;stroke-width:0.5;stroke-linecap:round;stroke-linejoin:round;stroke-miterlimit:10;stroke-dasharray:none;stroke-opacity:1"
             d="M 0,0 C 0.262,1.51 0.984,2.937 2.048,4.04" /></g><g
           transform="translate(312.5924,47.2624)"
           id="g766"><path
             id="path768"
             style="fill:none;stroke:#790d13;stroke-width:0.5;stroke-linecap:round;stroke-linejoin:round;stroke-miterlimit:10;stroke-dasharray:none;stroke-opacity:1"
             d="M 0,0 C 0.593,1.448 1.361,2.825 2.282,4.091" /></g><g
           transform="translate(293.3912,58.0798)"
           id="g770"><path
             id="path772"
             style="fill:none;stroke:#790d13;stroke-width:0.5;stroke-linecap:round;stroke-linejoin:round;stroke-miterlimit:10;stroke-dasharray:none;stroke-opacity:1"
             d="M 0,0 C 0.142,1.183 0.611,2.323 1.345,3.261" /></g><g
           transform="translate(297.5797,57.2673)"
           id="g774"><path
             id="path776"
             style="fill:none;stroke:#790d13;stroke-width:0.5;stroke-linecap:round;stroke-linejoin:round;stroke-miterlimit:10;stroke-dasharray:none;stroke-opacity:1"
             d="M 0,0 C 0.142,1.496 0.624,2.96 1.401,4.247" /></g><g
           transform="translate(316.0699,87.7438)"
           id="g778"><path
             id="path780"
             style="fill:none;stroke:#790d13;stroke-width:0.5;stroke-linecap:round;stroke-linejoin:round;stroke-miterlimit:10;stroke-dasharray:none;stroke-opacity:1"
             d="M 0,0 C 1.611,0.831 2.964,2.155 3.827,3.749" /></g><g
           transform="translate(300.0133,98.1999)"
           id="g782"><path
             id="path784"
             style="fill:none;stroke:#790d13;stroke-width:0.5;stroke-linecap:round;stroke-linejoin:round;stroke-miterlimit:10;stroke-dasharray:none;stroke-opacity:1"
             d="M 0,0 C 1.464,0.788 2.603,2.16 3.107,3.744" /></g><g
           transform="translate(286.4557,233.736)"
           id="g786"><path
             id="path788"
             style="fill:none;stroke:#790d13;stroke-width:0.5;stroke-linecap:round;stroke-linejoin:round;stroke-miterlimit:10;stroke-dasharray:none;stroke-opacity:1"
             d="M 0,0 C 1.664,-2.519 3.068,-5.208 4.184,-8.013" /></g></g></g></g></svg>